<svg width="352" height="327" viewBox="0 0 352 327" fill="none" xmlns="http://www.w3.org/2000/svg">
<path d="M282.351 81.5558C281.389 82.6664 280.739 84.0131 280.47 85.4577L276.717 87.566V77.6015L276.787 77.6978L282.78 73.3235C284.933 73.6514 287.135 73.3094 289.087 72.3437C292.167 70.6902 294.406 65.0125 294.406 65.0125C294.406 65.0125 287.075 64.1814 284.59 67.2609C283.232 68.8568 282.507 70.8958 282.552 72.9911L276.717 77.2691V69.9116C277.81 69.4021 278.776 68.6557 279.544 67.7266C280.313 66.7975 280.865 65.709 281.161 64.5401C282.228 60.4021 276.551 52.2397 276.551 52.2397C276.551 52.2397 270.628 60.6295 271.853 64.8813C272.131 66.0239 272.687 67.0802 273.471 67.9562C274.256 68.8323 275.244 69.501 276.349 69.9029V85.8776L272.133 82.3782C272.225 81.2621 272.079 80.1391 271.705 79.0834C271.331 78.0278 270.737 77.0635 269.963 76.2543C267.129 73.0611 259.561 73.2973 259.561 73.2973C259.561 73.2973 262.754 79.6837 265.466 81.8096C267.846 83.673 271.127 82.9119 271.914 82.6844L276.349 86.385V91.2316H269.762L272.448 108.046H280.522L283.208 91.2316H276.752V88.021L280.881 85.7114C283.025 86.3269 285.318 86.1563 287.346 85.2302C289.674 83.9031 291.724 82.1386 293.383 80.0336C293.383 80.0336 285.413 78.004 282.351 81.5558Z" fill="#90CAF9"/>
<path d="M232.729 48.0754H144.125V55.2754H232.729V48.0754Z" fill="white"/>
<path d="M232.729 58.8711H144.125V66.0711H232.729V58.8711Z" fill="white"/>
<path d="M232.729 69.6667H144.125V76.8667H232.729V69.6667Z" fill="white"/>
<path d="M232.729 80.4712H144.125V87.6712H232.729V80.4712Z" fill="white"/>
<path d="M232.729 91.2666H144.125V98.4666H232.729V91.2666Z" fill="white"/>
<path d="M232.729 102.062H144.125V109.262H232.729V102.062Z" fill="white"/>
<path d="M232.729 112.858H144.125V120.058H232.729V112.858Z" fill="white"/>
<path d="M232.729 123.654H144.125V130.854H232.729V123.654Z" fill="white"/>
<path d="M232.729 134.449H144.125V141.649H232.729V134.449Z" fill="white"/>
<path d="M232.729 145.245H144.125V152.445H232.729V145.245Z" fill="white"/>
<path d="M232.729 156.04H144.125V163.24H232.729V156.04Z" fill="white"/>
<path d="M232.729 166.836H144.125V174.036H232.729V166.836Z" fill="white"/>
<path d="M232.729 177.64H144.125V184.84H232.729V177.64Z" fill="white"/>
<path d="M138.263 48.0754H49.6589V55.2754H138.263V48.0754Z" fill="white"/>
<path d="M138.263 58.8711H49.6589V66.0711H138.263V58.8711Z" fill="white"/>
<path d="M138.263 69.6667H49.6589V76.8667H138.263V69.6667Z" fill="white"/>
<path d="M138.263 80.4712H49.6589V87.6712H138.263V80.4712Z" fill="white"/>
<path d="M138.263 91.2666H49.6589V98.4666H138.263V91.2666Z" fill="white"/>
<path d="M138.263 102.062H49.6589V109.262H138.263V102.062Z" fill="white"/>
<path d="M138.263 112.858H49.6589V120.058H138.263V112.858Z" fill="white"/>
<path d="M138.263 123.654H49.6589V130.854H138.263V123.654Z" fill="white"/>
<path d="M138.263 134.449H49.6589V141.649H138.263V134.449Z" fill="white"/>
<path d="M138.263 145.245H49.6589V152.445H138.263V145.245Z" fill="white"/>
<path d="M138.263 156.04H49.6589V163.24H138.263V156.04Z" fill="white"/>
<path d="M138.263 166.836H49.6589V174.036H138.263V166.836Z" fill="white"/>
<path d="M138.263 177.64H49.6589V184.84H138.263V177.64Z" fill="white"/>
<path d="M237.13 40.9717H45.2498V46.2208H237.13V40.9717Z" stroke="#263238" stroke-miterlimit="10"/>
<path d="M45.3809 219.143H36.6324V326.46H45.3809V219.143Z" stroke="#263238" stroke-miterlimit="10"/>
<path d="M247.182 219.143H238.433V326.46H247.182V219.143Z" stroke="#263238" stroke-miterlimit="10"/>
<path d="M48.3029 192.897H235.984C239.343 192.897 242.565 194.232 244.941 196.608C247.317 198.983 248.651 202.206 248.651 205.565V224.611H35.6439V205.574C35.6428 203.91 35.9693 202.263 36.6049 200.726C37.2404 199.188 38.1725 197.791 39.348 196.614C40.5235 195.437 41.9194 194.503 43.4559 193.865C44.9924 193.227 46.6394 192.899 48.3029 192.897Z" fill="#90CAF9" stroke="#90CAF9" stroke-miterlimit="10"/>
<path d="M53.447 215.425H242.536" stroke="#263238" stroke-miterlimit="10"/>
<path d="M38.7759 215.425H44.0162" stroke="#263238" stroke-miterlimit="10"/>
<path d="M29.6337 271.056H20.8853V326.46H29.6337V271.056Z" stroke="#263238" stroke-miterlimit="10"/>
<path d="M88.5459 271.056H79.7975V326.46H88.5459V271.056Z" stroke="#263238" stroke-miterlimit="10"/>
<path d="M32.5558 244.811H77.3041C80.6638 244.811 83.8859 246.145 86.2616 248.521C88.6373 250.897 89.9719 254.119 89.9719 257.479V276.524H19.8967V257.479C19.8967 254.12 21.2302 250.9 23.6039 248.524C25.9777 246.149 29.1976 244.813 32.5558 244.811Z" fill="#90CAF9" stroke="#90CAF9" stroke-miterlimit="10"/>
<path d="M312.506 116.786H271.677V311.002H312.506V116.786Z" stroke="#263238" stroke-miterlimit="10"/>
<path d="M334.666 116.786H317.169V311.002H334.666" stroke="#263238" stroke-miterlimit="10"/>
<path d="M265.265 326.172V108.038H320.083" stroke="#263238" stroke-miterlimit="10"/>
<path d="M308.998 202.521H304.335V220.604H308.998V202.521Z" stroke="#263238" stroke-miterlimit="10"/>
<path d="M325.332 202.521H320.669V220.604H325.332V202.521Z" stroke="#263238" stroke-miterlimit="10"/>
<path d="M210.779 87.4523C210.779 87.4523 210.954 92.0539 209.905 94.7747C208.855 97.4955 209.397 103.296 209.738 104.311C210.08 105.325 208.715 108.746 208.715 108.746L211.952 113.173C211.952 113.173 215.696 107.547 217.568 104.486C219.44 101.424 222.196 98.694 221.313 96.9881C220.429 95.2821 217.743 91.879 217.568 91.0304C217.393 90.1818 215.819 89.3332 215.819 89.3332L213.098 95.4571C213.098 95.4571 212.59 91.0304 212.59 88.992C212.59 86.9536 211.296 85.9213 210.779 87.4523Z" fill="white"/>
<mask id="mask0_15_670" style="mask-type:luminance" maskUnits="userSpaceOnUse" x="208" y="86" width="14" height="28">
<path d="M210.779 87.4523C210.779 87.4523 210.954 92.0539 209.905 94.7747C208.855 97.4955 209.397 103.296 209.738 104.311C210.08 105.325 208.715 108.746 208.715 108.746L211.952 113.173C211.952 113.173 215.696 107.547 217.568 104.486C219.44 101.424 222.196 98.694 221.313 96.9881C220.429 95.2821 217.743 91.879 217.568 91.0304C217.393 90.1818 215.819 89.3332 215.819 89.3332L213.098 95.4571C213.098 95.4571 212.59 91.0304 212.59 88.992C212.59 86.9536 211.296 85.9213 210.779 87.4523Z" fill="white"/>
</mask>
<g mask="url(#mask0_15_670)">
<path opacity="0.15" d="M210.779 87.4523C210.779 87.4523 210.954 92.0539 209.905 94.7747C208.855 97.4955 209.397 103.296 209.738 104.311C210.08 105.325 208.715 108.746 208.715 108.746L211.952 113.173C211.952 113.173 215.696 107.547 217.568 104.486C219.44 101.424 222.196 98.694 221.313 96.9881C220.429 95.2821 217.743 91.879 217.568 91.0304C217.393 90.1818 215.819 89.3332 215.819 89.3332L213.098 95.4571C213.098 95.4571 212.59 91.0304 212.59 88.992C212.59 86.9536 211.296 85.9213 210.779 87.4523Z" fill="black" stroke="#263238" stroke-linecap="round" stroke-linejoin="round"/>
</g>
<path d="M210.779 87.4523C210.779 87.4523 210.954 92.0539 209.905 94.7747C208.855 97.4955 209.397 103.296 209.738 104.311C210.08 105.325 208.715 108.746 208.715 108.746L211.952 113.173C211.952 113.173 215.696 107.547 217.568 104.486C219.44 101.424 222.196 98.694 221.313 96.9881C220.429 95.2821 217.743 91.879 217.568 91.0304C217.393 90.1818 215.819 89.3332 215.819 89.3332L213.098 95.4571C213.098 95.4571 212.59 91.0304 212.59 88.992C212.59 86.9536 211.296 85.9213 210.779 87.4523Z" stroke="#263238" stroke-linecap="round" stroke-linejoin="round"/>
<path d="M208.059 107.749L214.874 114.555C214.874 114.555 193.414 150.153 191.201 151.167C188.987 152.182 180.641 145.367 180.641 145.367L175.016 114.363C175.016 114.363 182.522 118.396 185.077 122.647C187.631 126.899 189.328 127.31 189.328 127.31L208.059 107.749Z" fill="white"/>
<mask id="mask1_15_670" style="mask-type:luminance" maskUnits="userSpaceOnUse" x="175" y="107" width="40" height="45">
<path d="M208.059 107.749L214.874 114.555C214.874 114.555 193.414 150.153 191.201 151.167C188.987 152.182 180.641 145.367 180.641 145.367L175.016 114.363C175.016 114.363 182.522 118.396 185.077 122.647C187.631 126.899 189.328 127.31 189.328 127.31L208.059 107.749Z" fill="white"/>
</mask>
<g mask="url(#mask1_15_670)">
<path d="M188.034 136.925C187.36 136.925 186.678 133.977 186.678 132.393C186.678 130.81 183.056 133.758 183.056 133.758L178.988 128.325L177.667 128.964L180.641 145.358C180.641 145.358 188.987 152.165 191.201 151.141C193.414 150.118 212.556 118.361 214.682 114.853C209.45 119.288 188.629 136.925 188.034 136.925Z" fill="#90CAF9"/>
<path opacity="0.5" d="M188.034 136.925C187.36 136.925 186.678 133.977 186.678 132.393C186.678 130.81 183.056 133.758 183.056 133.758L178.988 128.325L177.667 128.964L180.641 145.358C180.641 145.358 188.987 152.165 191.201 151.141C193.414 150.118 212.556 118.361 214.682 114.853C209.45 119.288 188.629 136.925 188.034 136.925Z" fill="white"/>
</g>
<path d="M208.059 107.749L214.874 114.555C214.874 114.555 193.414 150.153 191.201 151.167C188.987 152.182 180.641 145.367 180.641 145.367L175.016 114.363C175.016 114.363 182.522 118.396 185.077 122.647C187.631 126.899 189.328 127.31 189.328 127.31L208.059 107.749Z" stroke="#263238" stroke-linecap="round" stroke-linejoin="round"/>
<path d="M186.161 138.482C186.599 134.545 189.328 127.302 189.328 127.302C189.328 127.302 185.724 132.358 184.63 134.983" stroke="#263238" stroke-linecap="round" stroke-linejoin="round"/>
<path d="M168.664 312.463C171.443 314.839 174.629 316.692 178.069 317.93C183.974 320.117 186.599 321.43 187.474 323.398C188.348 325.367 187.474 326.46 187.474 326.46H150.074C150.074 326.46 148.106 323.398 151.386 317.274C154.667 311.15 168.664 312.463 168.664 312.463Z" fill="white" stroke="#263238" stroke-linecap="round" stroke-linejoin="round"/>
<path d="M170.003 313.758C170.003 313.758 166.95 315.096 167.903 315.665C168.857 316.233 171.333 314.904 171.333 314.904C171.333 314.904 168.288 317.196 169.811 317.388C171.333 317.581 173.625 316.242 173.625 316.242C173.625 316.242 171.525 318.91 172.479 319.103C173.433 319.295 175.908 317.353 175.908 317.353" stroke="#263238" stroke-linecap="round" stroke-linejoin="round"/>
<path d="M149.733 323.705L187.474 323.398" stroke="#263238" stroke-linecap="round" stroke-linejoin="round"/>
<path d="M183.099 219.073C183.099 219.073 178.725 254.723 178.069 263.253C177.413 271.782 171.508 286.655 170.414 290.373C169.295 295.044 168.564 299.798 168.227 304.589C168.433 306.656 168.798 308.703 169.321 310.713C169.321 310.713 169.758 312.682 165.602 313.556C161.447 314.431 153.792 315.743 153.792 315.743C153.792 315.743 150.949 314.869 151.168 306.558C151.386 298.247 151.824 282.937 153.792 275.719C155.76 268.502 158.385 256.691 159.041 254.286C159.697 251.88 158.166 212.293 158.166 212.293L182.662 212.074L183.099 219.073Z" fill="#263238" stroke="#263238" stroke-linecap="round" stroke-linejoin="round"/>
<path d="M151.386 312.463C154.164 314.839 157.351 316.692 160.791 317.93C166.696 320.117 169.321 321.43 170.196 323.398C171.07 325.367 170.196 326.46 170.196 326.46H132.796C132.796 326.46 130.827 323.398 134.108 317.274C137.389 311.15 151.386 312.463 151.386 312.463Z" fill="white" stroke="#263238" stroke-linecap="round" stroke-linejoin="round"/>
<path d="M155.892 315.481C155.892 315.481 151.124 318.149 151.885 318.525C152.646 318.902 157.414 316.618 157.414 316.618C157.414 316.618 154.746 319.671 156.268 319.479C157.79 319.287 159.513 317.388 159.513 317.388C159.513 317.388 157.982 320.625 159.129 320.249C160.077 319.788 160.922 319.139 161.613 318.342" stroke="#263238" stroke-linecap="round" stroke-linejoin="round"/>
<path d="M132.323 322.821L170.195 323.398" stroke="#263238" stroke-linecap="round" stroke-linejoin="round"/>
<path d="M138.92 209.887C138.92 209.887 140.232 244.006 140.013 250.567C139.795 257.129 136.295 264.346 135.858 272.22C135.42 280.093 132.288 311.054 132.288 314.554C132.288 318.053 132.437 318.718 132.656 319.374C132.874 320.03 138.264 318.587 141.325 317.493C144.387 316.399 154.903 315.297 154.903 315.297C154.903 315.297 153.153 312.025 153.153 309.619C153.153 307.214 152.716 303.277 153.153 301.965C153.591 300.652 156.215 273.313 157.965 268.283C159.715 263.253 162.777 246.631 162.995 240.288C163.214 233.945 165.839 212.512 165.839 212.512C165.839 212.512 148.324 213.168 138.92 209.887Z" fill="#263238" stroke="#263238" stroke-linecap="round" stroke-linejoin="round"/>
<path d="M166.6 235.914C166.705 234.601 166.766 233.377 166.766 232.257" stroke="white" stroke-linecap="round" stroke-linejoin="round"/>
<path d="M154.903 313.066V306.4C154.903 303.058 157.869 286.375 160.458 271.546C162.383 260.558 164.92 249.159 166.101 240.367" stroke="white" stroke-linecap="round" stroke-linejoin="round"/>
<path d="M143.521 102.902C143.521 102.902 135.517 110.224 134.834 110.776C134.152 111.327 128.019 121.326 126.322 125.246C124.625 129.165 126.147 136.487 127.197 142.742C128.247 148.998 134.86 169.137 134.86 169.137L133.154 220.053C133.154 220.053 144.904 224.995 151.526 226.177C158.149 227.358 168.726 226.859 168.726 226.859L170.939 215.792L173.66 226.343C173.66 226.343 184.044 225.153 188.812 219.878L183.029 154.99L179.793 125.867C179.793 125.867 178.918 118.868 177.238 115.823C175.558 112.779 166.337 106.795 159.864 104.45C153.39 102.106 143.521 102.902 143.521 102.902Z" fill="white"/>
<mask id="mask2_15_670" style="mask-type:luminance" maskUnits="userSpaceOnUse" x="125" y="102" width="64" height="125">
<path d="M143.521 102.902C143.521 102.902 135.517 110.224 134.834 110.776C134.152 111.327 128.019 121.326 126.322 125.246C124.625 129.165 126.147 136.487 127.197 142.742C128.247 148.998 134.86 169.137 134.86 169.137L133.154 220.053C133.154 220.053 144.904 224.995 151.526 226.177C158.149 227.358 168.726 226.859 168.726 226.859L170.939 215.792L173.66 226.343C173.66 226.343 184.044 225.153 188.812 219.878L183.029 154.99L179.793 125.867C179.793 125.867 178.918 118.868 177.238 115.823C175.558 112.779 166.337 106.795 159.864 104.45C153.39 102.106 143.521 102.902 143.521 102.902Z" fill="white"/>
</mask>
<g mask="url(#mask2_15_670)">
<path d="M150.249 147.117L133.277 138.071L133.995 131.536C133.995 131.536 128.081 130.608 129.437 126.759C130.793 122.91 136.252 115.622 137.363 113.164C138.474 110.706 144.598 106.165 144.598 106.165L147.038 102.771C144.93 102.771 143.539 102.911 143.539 102.911C143.539 102.911 135.534 110.233 134.852 110.784C134.169 111.335 128.037 121.335 126.34 125.254C124.642 129.174 126.165 136.496 127.214 142.751C128.264 149.006 134.878 169.145 134.878 169.145L133.172 220.061C133.172 220.061 135.963 221.234 139.594 222.572C139.095 203.973 138.203 168.638 138.535 168.139C138.99 167.466 146.907 156.6 149.164 154.142C151.421 151.683 139.217 154.815 139.891 154.369C140.565 153.923 150.249 147.117 150.249 147.117Z" fill="#90CAF9"/>
<path opacity="0.5" d="M150.249 147.117L133.277 138.071L133.995 131.536C133.995 131.536 128.081 130.608 129.437 126.759C130.793 122.91 136.252 115.622 137.363 113.164C138.474 110.706 144.598 106.165 144.598 106.165L147.038 102.771C144.93 102.771 143.539 102.911 143.539 102.911C143.539 102.911 135.534 110.233 134.852 110.784C134.169 111.335 128.037 121.335 126.34 125.254C124.642 129.174 126.165 136.496 127.214 142.751C128.264 149.006 134.878 169.145 134.878 169.145L133.172 220.061C133.172 220.061 135.963 221.234 139.594 222.572C139.095 203.973 138.203 168.638 138.535 168.139C138.99 167.466 146.907 156.6 149.164 154.142C151.421 151.683 139.217 154.815 139.891 154.369C140.565 153.923 150.249 147.117 150.249 147.117Z" fill="white"/>
<path d="M166.478 139.024C166.478 139.024 172.33 195.26 170.939 215.81L166.478 139.024Z" fill="white"/>
<path d="M166.478 139.024C166.478 139.024 172.33 195.26 170.939 215.81" stroke="#263238" stroke-linecap="round" stroke-linejoin="round"/>
<path d="M140.67 186.703L158.385 189.109V193.702L140.888 190.859L140.67 186.703Z" stroke="#263238" stroke-linecap="round" stroke-linejoin="round"/>
<path d="M185.068 189.765L179.6 191.734L178.944 187.36L183.318 185.829" stroke="#263238" stroke-linecap="round" stroke-linejoin="round"/>
</g>
<path d="M143.521 102.902C143.521 102.902 135.517 110.224 134.834 110.776C134.152 111.327 128.019 121.326 126.322 125.246C124.625 129.165 126.147 136.487 127.197 142.742C128.247 148.998 134.86 169.137 134.86 169.137L133.154 220.053C133.154 220.053 144.904 224.995 151.526 226.177C158.149 227.358 168.726 226.859 168.726 226.859L170.939 215.792L173.66 226.343C173.66 226.343 184.044 225.153 188.812 219.878L183.029 154.99L179.793 125.867C179.793 125.867 178.918 118.868 177.238 115.823C175.558 112.779 166.337 106.795 159.864 104.45C153.39 102.106 143.521 102.902 143.521 102.902Z" stroke="#263238" stroke-linecap="round" stroke-linejoin="round"/>
<path d="M142.498 104.249C142.498 104.249 157.65 122.472 160.205 127.24C162.759 132.008 166.512 137.8 166.512 137.8C166.512 137.8 166.679 121.615 164.465 114.126C162.252 106.638 159.872 105.29 159.872 105.29C158.611 103.997 157.048 103.039 155.323 102.503C153.598 101.967 151.767 101.869 149.995 102.22C143.521 103.243 142.498 104.249 142.498 104.249Z" fill="white" stroke="#263238" stroke-linecap="round" stroke-linejoin="round"/>
<path d="M166.11 125.324L162.418 117.722V111.082L157.309 105.833L156.802 114.345L160.546 118.606L162.296 130.95C164.421 134.589 166.539 137.852 166.539 137.852C166.539 137.852 166.574 131.746 166.11 125.324Z" fill="#263238" stroke="#263238" stroke-linecap="round" stroke-linejoin="round"/>
<path d="M159.522 109.717L164.465 114.144L160.205 103.926C160.205 103.926 158.333 108.693 159.522 109.717Z" fill="white" stroke="#263238" stroke-linecap="round" stroke-linejoin="round"/>
<path d="M148.797 65.2661C148.797 65.2661 141.991 68.3368 139.095 73.7871C136.199 79.2374 140.451 85.8775 141.816 87.5747C142.795 88.749 143.878 89.8323 145.053 90.8116L146.417 92.3426L146.583 100.006L158.998 110.566L162.401 99.665C162.401 99.665 168.192 98.4752 169.05 96.2619C169.907 94.0485 167.344 80.4272 166.661 77.6976C165.979 74.9681 163.94 69.7015 163.94 69.7015C163.94 69.7015 164.614 67.147 160.704 64.7587C156.793 62.3703 148.797 65.2661 148.797 65.2661Z" fill="white"/>
<mask id="mask3_15_670" style="mask-type:luminance" maskUnits="userSpaceOnUse" x="138" y="63" width="32" height="48">
<path d="M148.797 65.2661C148.797 65.2661 141.991 68.3368 139.095 73.7871C136.199 79.2374 140.451 85.8775 141.816 87.5747C142.795 88.749 143.878 89.8323 145.053 90.8116L146.417 92.3426L146.583 100.006L158.998 110.566L162.401 99.665C162.401 99.665 168.192 98.4752 169.05 96.2619C169.907 94.0485 167.344 80.4272 166.661 77.6976C165.979 74.9681 163.94 69.7015 163.94 69.7015C163.94 69.7015 164.614 67.147 160.704 64.7587C156.793 62.3703 148.797 65.2661 148.797 65.2661Z" fill="white"/>
</mask>
<g mask="url(#mask3_15_670)">
<g opacity="0.15">
<path d="M148.797 65.2661C148.797 65.2661 141.991 68.3368 139.095 73.7871C136.199 79.2374 140.451 85.8775 141.816 87.5747C142.795 88.749 143.878 89.8323 145.053 90.8116L146.417 92.3426L146.583 100.006L158.998 110.566L162.401 99.665C162.401 99.665 168.192 98.4752 169.05 96.2619C169.907 94.0485 167.344 80.4272 166.661 77.6976C165.979 74.9681 163.94 69.7015 163.94 69.7015C163.94 69.7015 164.614 67.147 160.704 64.7587C156.793 62.3703 148.797 65.2661 148.797 65.2661Z" fill="black"/>
<mask id="mask4_15_670" style="mask-type:luminance" maskUnits="userSpaceOnUse" x="138" y="63" width="32" height="48">
<path d="M148.797 65.2661C148.797 65.2661 141.991 68.3368 139.095 73.7871C136.199 79.2374 140.451 85.8775 141.816 87.5747C142.795 88.749 143.878 89.8323 145.053 90.8116L146.417 92.3426L146.583 100.006L158.998 110.566L162.401 99.665C162.401 99.665 168.192 98.4752 169.05 96.2619C169.907 94.0485 167.344 80.4272 166.661 77.6976C165.979 74.9681 163.94 69.7015 163.94 69.7015C163.94 69.7015 164.614 67.147 160.704 64.7587C156.793 62.3703 148.797 65.2661 148.797 65.2661Z" fill="white"/>
</mask>
<g mask="url(#mask4_15_670)">
<path d="M153.425 93.4885C152.742 90.0941 155.463 81.2406 152.55 75.3879C150.214 70.7075 143.452 71.0137 140.775 71.3724C140.141 72.1154 139.589 72.925 139.13 73.7869C136.234 79.2372 140.486 85.8773 141.851 87.5745C142.83 88.7488 143.913 89.8322 145.088 90.8114L146.452 92.3424L146.619 100.006L150.048 102.919C150.048 101.939 150.048 101.17 150.048 100.723C150.048 99.2275 156.837 99.14 158.648 98.4663C160.459 97.7927 154.098 96.8829 153.425 93.4885Z" fill="black"/>
<path opacity="0.5" d="M153.425 93.4885C152.742 90.0941 155.463 81.2406 152.55 75.3879C150.214 70.7075 143.452 71.0137 140.775 71.3724C140.141 72.1154 139.589 72.925 139.13 73.7869C136.234 79.2372 140.486 85.8773 141.851 87.5745C142.83 88.7488 143.913 89.8322 145.088 90.8114L146.452 92.3424L146.619 100.006L150.048 102.919C150.048 101.939 150.048 101.17 150.048 100.723C150.048 99.2275 156.837 99.14 158.648 98.4663C160.459 97.7927 154.098 96.8829 153.425 93.4885Z" fill="black"/>
</g>
</g>
<g style="mix-blend-mode:multiply" opacity="0.22">
<path d="M153.425 93.4885C152.742 90.0941 155.463 81.2406 152.55 75.3879C150.214 70.7075 143.452 71.0137 140.775 71.3724C140.141 72.1154 139.589 72.925 139.13 73.7869C136.234 79.2372 140.486 85.8773 141.851 87.5745C142.83 88.7488 143.913 89.8322 145.088 90.8114L146.452 92.3424L146.619 100.006L150.048 102.919C150.048 101.939 150.048 101.17 150.048 100.723C150.048 99.2275 156.837 99.14 158.648 98.4663C160.459 97.7927 154.098 96.8829 153.425 93.4885Z" fill="black"/>
</g>
</g>
<path d="M148.797 65.2661C148.797 65.2661 141.991 68.3368 139.095 73.7871C136.199 79.2374 140.451 85.8775 141.816 87.5747C142.795 88.749 143.878 89.8323 145.053 90.8116L146.417 92.3426L146.583 100.006L158.998 110.566L162.401 99.665C162.401 99.665 168.192 98.4752 169.05 96.2619C169.907 94.0485 167.344 80.4272 166.661 77.6976C165.979 74.9681 163.94 69.7015 163.94 69.7015C163.94 69.7015 164.614 67.147 160.704 64.7587C156.793 62.3703 148.797 65.2661 148.797 65.2661Z" stroke="#263238" stroke-linecap="round" stroke-linejoin="round"/>
<path d="M150.669 92.6838C150.669 92.6838 151.351 95.4134 152.541 96.0957C155.293 97.658 158.405 98.478 161.57 98.4753" stroke="#263238" stroke-linecap="round" stroke-linejoin="round"/>
<path d="M166.679 77.6978L165.655 79.5699C165.655 79.5699 169.741 83.323 169.574 84.3378C169.408 85.3527 166.171 86.56 166.171 86.56" fill="white"/>
<mask id="mask5_15_670" style="mask-type:luminance" maskUnits="userSpaceOnUse" x="165" y="77" width="5" height="10">
<path d="M166.679 77.6978L165.655 79.5699C165.655 79.5699 169.741 83.323 169.574 84.3378C169.408 85.3527 166.171 86.56 166.171 86.56" fill="white"/>
</mask>
<g mask="url(#mask5_15_670)">
<path opacity="0.15" d="M166.679 77.6978L165.655 79.5699C165.655 79.5699 169.741 83.323 169.574 84.3378C169.408 85.3527 166.171 86.56 166.171 86.56" fill="black"/>
</g>
<path d="M166.679 77.6978L165.655 79.5699C165.655 79.5699 169.741 83.323 169.574 84.3378C169.408 85.3527 166.171 86.56 166.171 86.56" stroke="#263238" stroke-linecap="round" stroke-linejoin="round"/>
<path d="M161.464 81.407L161.736 82.0894L159.487 82.9817L161.849 82.9292" stroke="#263238" stroke-linecap="round" stroke-linejoin="round"/>
<path d="M161.797 78.9487C161.797 78.9487 158.927 78.1613 157.729 80.5671" stroke="#263238" stroke-linecap="round" stroke-linejoin="round"/>
<path d="M167.746 88.9482C166.439 89.3221 165.089 89.5221 163.73 89.5431" stroke="#263238" stroke-linecap="round" stroke-linejoin="round"/>
<path d="M153.748 70.7164C158.341 67.9956 163.967 69.6928 163.967 69.6928C163.967 69.6928 164.64 67.147 160.73 64.7587C156.819 62.3703 148.806 65.2661 148.806 65.2661C148.806 65.2661 141.999 68.3368 139.103 73.7871C136.208 79.2374 140.459 85.8775 141.824 87.5747C142.803 88.749 143.887 89.8324 145.061 90.8116L146.426 92.3426V92.9637C149.19 92.6313 149.645 92.1763 149.645 92.1763C149.263 92.1852 148.883 92.1117 148.531 91.9608C148.179 91.8098 147.864 91.585 147.607 91.3015C146.417 90.2779 144.204 88.572 144.711 86.1924C145.219 83.8128 147.266 83.8041 148.289 84.6527C149.313 85.5013 149.313 85.6762 150.503 85.1688C151.693 84.6614 149.987 81.5907 149.987 81.5907L151.736 80.4009C153.442 79.2111 153.95 77.8464 152.611 76.6566C151.273 75.4668 149.138 73.4459 153.748 70.7164Z" fill="#263238" stroke="#263238" stroke-linecap="round" stroke-linejoin="round"/>
<path d="M144.886 98.3091L142.498 104.267L156.119 117.381L159.697 110.399L144.886 98.3091Z" fill="white" stroke="#263238" stroke-linecap="round" stroke-linejoin="round"/>
<path d="M180.641 56.4653C180.641 56.4653 189.495 72.1338 190.859 79.6224C192.224 87.1111 194.779 96.9881 194.779 96.9881L217.087 94.4336C217.087 94.4336 213.85 73.6647 211.838 66.6835C209.826 59.7022 209.284 58.1625 209.284 58.1625C209.284 58.1625 184.368 55.6079 180.641 56.4653Z" fill="#263238" stroke="#263238" stroke-linecap="round" stroke-linejoin="round"/>
<path d="M183.712 108.746C183.712 108.746 184.587 102.622 184.587 102.097C184.587 101.572 184.368 92.8764 184.368 92.8764C184.368 92.8764 187.605 85.8777 188.121 85.554C188.637 85.2303 194.079 82.492 194.42 83.6818C194.761 84.8716 193.23 85.3877 192.714 85.8952C192.198 86.4026 189.993 87.4261 189.818 87.9423C189.643 88.4585 188.629 92.369 188.629 92.369C188.629 92.369 193.055 88.9659 194.245 88.9659C195.435 88.9659 196.458 91.6866 196.458 91.6866C196.458 91.6866 197.998 93.9 197.998 95.0898C197.998 96.2796 198.339 97.6443 197.482 98.5017C196.625 99.359 196.292 100.033 195.102 100.033C193.913 100.033 192.373 101.397 192.373 102.412C192.373 103.427 192.373 106.839 191.349 107.863C189.769 109.193 188.122 110.442 186.415 111.607L183.712 108.746Z" fill="white"/>
<mask id="mask6_15_670" style="mask-type:luminance" maskUnits="userSpaceOnUse" x="183" y="83" width="16" height="29">
<path d="M183.712 108.746C183.712 108.746 184.587 102.622 184.587 102.097C184.587 101.572 184.368 92.8764 184.368 92.8764C184.368 92.8764 187.605 85.8777 188.121 85.554C188.637 85.2303 194.079 82.492 194.42 83.6818C194.761 84.8716 193.23 85.3877 192.714 85.8952C192.198 86.4026 189.993 87.4261 189.818 87.9423C189.643 88.4585 188.629 92.369 188.629 92.369C188.629 92.369 193.055 88.9659 194.245 88.9659C195.435 88.9659 196.458 91.6866 196.458 91.6866C196.458 91.6866 197.998 93.9 197.998 95.0898C197.998 96.2796 198.339 97.6443 197.482 98.5017C196.625 99.359 196.292 100.033 195.102 100.033C193.913 100.033 192.373 101.397 192.373 102.412C192.373 103.427 192.373 106.839 191.349 107.863C189.769 109.193 188.122 110.442 186.415 111.607L183.712 108.746Z" fill="white"/>
</mask>
<g mask="url(#mask6_15_670)">
<path opacity="0.15" d="M183.712 108.746C183.712 108.746 184.587 102.622 184.587 102.097C184.587 101.572 184.368 92.8764 184.368 92.8764C184.368 92.8764 187.605 85.8777 188.121 85.554C188.637 85.2303 194.079 82.492 194.42 83.6818C194.761 84.8716 193.23 85.3877 192.714 85.8952C192.198 86.4026 189.993 87.4261 189.818 87.9423C189.643 88.4585 188.629 92.369 188.629 92.369C188.629 92.369 193.055 88.9659 194.245 88.9659C195.435 88.9659 196.458 91.6866 196.458 91.6866C196.458 91.6866 197.998 93.9 197.998 95.0898C197.998 96.2796 198.339 97.6443 197.482 98.5017C196.625 99.359 196.292 100.033 195.102 100.033C193.913 100.033 192.373 101.397 192.373 102.412C192.373 103.427 192.373 106.839 191.349 107.863C189.769 109.193 188.122 110.442 186.415 111.607L183.712 108.746Z" fill="black" stroke="#263238" stroke-linecap="round" stroke-linejoin="round"/>
</g>
<path d="M183.712 108.746C183.712 108.746 184.587 102.622 184.587 102.097C184.587 101.572 184.368 92.8764 184.368 92.8764C184.368 92.8764 187.605 85.8777 188.121 85.554C188.637 85.2303 194.079 82.492 194.42 83.6818C194.761 84.8716 193.23 85.3877 192.714 85.8952C192.198 86.4026 189.993 87.4261 189.818 87.9423C189.643 88.4585 188.629 92.369 188.629 92.369C188.629 92.369 193.055 88.9659 194.245 88.9659C195.435 88.9659 196.458 91.6866 196.458 91.6866C196.458 91.6866 197.998 93.9 197.998 95.0898C197.998 96.2796 198.339 97.6443 197.482 98.5017C196.625 99.359 196.292 100.033 195.102 100.033C193.913 100.033 192.373 101.397 192.373 102.412C192.373 103.427 192.373 106.839 191.349 107.863C189.769 109.193 188.122 110.442 186.415 111.607L183.712 108.746Z" stroke="#263238" stroke-linecap="round" stroke-linejoin="round"/>
<path d="M198.015 95.116L192.224 97.8455" stroke="#263238" stroke-linecap="round" stroke-linejoin="round"/>
<path d="M196.476 91.7129L191.034 94.9498" stroke="#263238" stroke-linecap="round" stroke-linejoin="round"/>
<path d="M217.936 90.1819C217.936 90.1819 214.192 92.3953 214.192 93.4189C214.192 94.4424 215.067 94.6087 216.23 94.1012C217.394 93.5938 219.642 92.9027 219.642 91.7129C219.642 90.5231 219.126 90.007 217.936 90.1819Z" fill="white"/>
<mask id="mask7_15_670" style="mask-type:luminance" maskUnits="userSpaceOnUse" x="214" y="90" width="6" height="5">
<path d="M217.936 90.1819C217.936 90.1819 214.192 92.3953 214.192 93.4189C214.192 94.4424 215.067 94.6087 216.23 94.1012C217.394 93.5938 219.642 92.9027 219.642 91.7129C219.642 90.5231 219.126 90.007 217.936 90.1819Z" fill="white"/>
</mask>
<g mask="url(#mask7_15_670)">
<path opacity="0.15" d="M217.936 90.1819C217.936 90.1819 214.192 92.3953 214.192 93.4189C214.192 94.4424 215.067 94.6087 216.23 94.1012C217.394 93.5938 219.642 92.9027 219.642 91.7129C219.642 90.5231 219.126 90.007 217.936 90.1819Z" fill="black" stroke="#263238" stroke-linecap="round" stroke-linejoin="round"/>
</g>
<path d="M217.936 90.1819C217.936 90.1819 214.192 92.3953 214.192 93.4189C214.192 94.4424 215.067 94.6087 216.23 94.1012C217.394 93.5938 219.642 92.9027 219.642 91.7129C219.642 90.5231 219.126 90.007 217.936 90.1819Z" stroke="#263238" stroke-linecap="round" stroke-linejoin="round"/>
<path d="M217.254 87.7933C217.254 87.7933 213.675 88.6682 213.509 90.0067C213.343 91.3452 217.936 90.3479 218.959 90.0067C219.983 89.6655 219.983 87.2859 217.254 87.7933Z" fill="white"/>
<mask id="mask8_15_670" style="mask-type:luminance" maskUnits="userSpaceOnUse" x="213" y="87" width="7" height="4">
<path d="M217.254 87.7933C217.254 87.7933 213.675 88.6682 213.509 90.0067C213.343 91.3452 217.936 90.3479 218.959 90.0067C219.983 89.6655 219.983 87.2859 217.254 87.7933Z" fill="white"/>
</mask>
<g mask="url(#mask8_15_670)">
<path opacity="0.15" d="M217.254 87.7933C217.254 87.7933 213.675 88.6682 213.509 90.0067C213.343 91.3452 217.936 90.3479 218.959 90.0067C219.983 89.6655 219.983 87.2859 217.254 87.7933Z" fill="black" stroke="#263238" stroke-linecap="round" stroke-linejoin="round"/>
</g>
<path d="M217.254 87.7933C217.254 87.7933 213.675 88.6682 213.509 90.0067C213.343 91.3452 217.936 90.3479 218.959 90.0067C219.983 89.6655 219.983 87.2859 217.254 87.7933Z" stroke="#263238" stroke-linecap="round" stroke-linejoin="round"/>
<path d="M219.126 92.8762C219.126 92.8762 214.874 94.9234 214.699 95.6057C214.524 96.2881 214.191 97.3029 215.889 97.3029C217.586 97.3029 220.831 95.6057 220.998 94.4072C221.164 93.2087 220.49 92.8762 219.126 92.8762Z" fill="white"/>
<mask id="mask9_15_670" style="mask-type:luminance" maskUnits="userSpaceOnUse" x="214" y="92" width="8" height="6">
<path d="M219.126 92.8762C219.126 92.8762 214.874 94.9234 214.699 95.6057C214.524 96.2881 214.191 97.3029 215.889 97.3029C217.586 97.3029 220.831 95.6057 220.998 94.4072C221.164 93.2087 220.49 92.8762 219.126 92.8762Z" fill="white"/>
</mask>
<g mask="url(#mask9_15_670)">
<path opacity="0.15" d="M219.126 92.8762C219.126 92.8762 214.874 94.9234 214.699 95.6057C214.524 96.2881 214.191 97.3029 215.889 97.3029C217.586 97.3029 220.831 95.6057 220.998 94.4072C221.164 93.2087 220.49 92.8762 219.126 92.8762Z" fill="black" stroke="#263238" stroke-linecap="round" stroke-linejoin="round"/>
</g>
<path d="M219.126 92.8762C219.126 92.8762 214.874 94.9234 214.699 95.6057C214.524 96.2881 214.191 97.3029 215.889 97.3029C217.586 97.3029 220.831 95.6057 220.998 94.4072C221.164 93.2087 220.49 92.8762 219.126 92.8762Z" stroke="#263238" stroke-linecap="round" stroke-linejoin="round"/>
<path d="M220.464 95.2908C220.464 95.2908 216.527 97.093 216.37 97.6966C216.212 98.3002 215.898 99.2013 217.472 99.2013C219.047 99.2013 222.039 97.6966 222.196 96.6468C222.354 95.597 221.724 95.2908 220.464 95.2908Z" fill="white"/>
<mask id="mask10_15_670" style="mask-type:luminance" maskUnits="userSpaceOnUse" x="216" y="95" width="7" height="5">
<path d="M220.464 95.2908C220.464 95.2908 216.527 97.093 216.37 97.6966C216.212 98.3002 215.898 99.2013 217.472 99.2013C219.047 99.2013 222.039 97.6966 222.196 96.6468C222.354 95.597 221.724 95.2908 220.464 95.2908Z" fill="white"/>
</mask>
<g mask="url(#mask10_15_670)">
<path opacity="0.15" d="M220.464 95.2908C220.464 95.2908 216.527 97.093 216.37 97.6966C216.212 98.3002 215.898 99.2013 217.472 99.2013C219.047 99.2013 222.039 97.6966 222.196 96.6468C222.354 95.597 221.724 95.2908 220.464 95.2908Z" fill="black" stroke="#263238" stroke-linecap="round" stroke-linejoin="round"/>
</g>
<path d="M220.464 95.2908C220.464 95.2908 216.527 97.093 216.37 97.6966C216.212 98.3002 215.898 99.2013 217.472 99.2013C219.047 99.2013 222.039 97.6966 222.196 96.6468C222.354 95.597 221.724 95.2908 220.464 95.2908Z" stroke="#263238" stroke-linecap="round" stroke-linejoin="round"/>
<path d="M187.15 58.696C187.15 58.696 194.254 71.0751 195.566 76.1055C196.878 81.1359 197.972 95.1334 197.972 95.1334L212.188 93.3837C212.188 93.3837 211.751 80.6984 209.782 74.5745C207.814 68.4506 206.283 60.577 206.283 60.577L187.15 58.696Z" fill="#7D7D7D"/>
<path d="M198.934 77.3654C198.934 77.3654 197.307 80.3923 198.234 81.6783C199.162 82.9644 201.375 83.5418 201.611 83.8917C201.847 84.2416 203.475 94.1362 203.475 94.1362L208.479 93.6725C208.479 93.6725 206.038 84.4691 206.615 82.7282C207.193 80.9872 208.601 79.3512 207.202 77.8378C205.802 76.3243 203.588 75.2745 202.197 75.5019C200.991 75.8878 199.88 76.5226 198.934 77.3654Z" fill="white"/>
<path d="M194.394 59.7808C194.394 59.7808 198.471 70.2789 198.121 72.1248C197.771 73.9708 196.835 77.0152 198.934 77.3739C201.034 77.7326 201.961 75.7467 202.661 75.8604C203.361 75.9742 204.525 78.1875 205.574 76.9103C206.624 75.633 207.665 73.5334 205.924 71.4337C204.183 69.3341 202.897 68.1793 201.961 65.9659C201.246 64.135 200.625 62.2692 200.098 60.3757L194.394 59.7808Z" fill="white"/>
<path d="M142.664 114.187C142.664 114.187 145.219 114.187 148.289 116.917C151.36 119.646 162.287 130.713 162.287 130.713L183.572 107.547L190.571 114.187L165.314 151.141C164.11 151.551 162.839 151.726 161.57 151.657C159.697 151.482 131.09 137.353 131.09 137.353" fill="white"/>
<mask id="mask11_15_670" style="mask-type:luminance" maskUnits="userSpaceOnUse" x="131" y="107" width="60" height="45">
<path d="M142.664 114.187C142.664 114.187 145.219 114.187 148.289 116.917C151.36 119.646 162.287 130.713 162.287 130.713L183.572 107.547L190.571 114.187L165.314 151.141C164.11 151.551 162.839 151.726 161.57 151.657C159.697 151.482 131.09 137.353 131.09 137.353" fill="white"/>
</mask>
<g mask="url(#mask11_15_670)">
<path d="M158.175 145.971C154.326 145.971 141.431 138.727 137.363 135.56C135.988 134.446 134.847 133.073 134.003 131.518L131.09 137.353C131.09 137.353 159.698 151.482 161.57 151.657C162.839 151.726 164.11 151.551 165.314 151.141L183.563 124.371C176.985 130.827 161.202 145.971 158.175 145.971Z" fill="#90CAF9"/>
<path opacity="0.5" d="M158.175 145.971C154.326 145.971 141.431 138.727 137.363 135.56C135.988 134.446 134.847 133.073 134.003 131.518L131.09 137.353C131.09 137.353 159.698 151.482 161.57 151.657C162.839 151.726 164.11 151.551 165.314 151.141L183.563 124.371C176.985 130.827 161.202 145.971 158.175 145.971Z" fill="white"/>
</g>
<path d="M142.664 114.187C142.664 114.187 145.219 114.187 148.289 116.917C151.36 119.646 162.287 130.713 162.287 130.713L183.572 107.547L190.571 114.187L165.314 151.141C164.11 151.551 162.839 151.726 161.57 151.657C159.697 151.482 131.09 137.353 131.09 137.353" stroke="#263238" stroke-linecap="round" stroke-linejoin="round"/>
<path d="M142.664 143.311L133.303 143.136" stroke="#263238" stroke-linecap="round" stroke-linejoin="round"/>
<path d="M162.252 130.381C162.252 130.381 156.854 136.837 156.198 140.337" stroke="#263238" stroke-linecap="round" stroke-linejoin="round"/>
<path d="M160.572 131.046C160.572 131.046 155.979 135.201 154.886 137.389" stroke="#263238" stroke-linecap="round" stroke-linejoin="round"/>
<path d="M10.3873 326.46H351" stroke="#263238" stroke-linecap="round" stroke-linejoin="round"/>
</svg>
