<svg width="428" height="345" viewBox="0 0 428 345" fill="none" xmlns="http://www.w3.org/2000/svg">
<path d="M429 303.181H-2V303.412H429V303.181Z" fill="#EBEBEB"/>
<path d="M385.814 318.081H357.264V318.312H385.814V318.081Z" fill="#EBEBEB"/>
<path d="M283.511 320.599H276.021V320.831H283.511V320.599Z" fill="#EBEBEB"/>
<path d="M356.402 309.487H315.311V309.718H356.402V309.487Z" fill="#EBEBEB"/>
<path d="M63.6324 311.043H43.2202V311.274H63.6324V311.043Z" fill="#EBEBEB"/>
<path d="M93.587 311.043H71.3043V311.274H93.587V311.043Z" fill="#EBEBEB"/>
<path d="M167.047 314.95H111.327V315.182H167.047V314.95Z" fill="#EBEBEB"/>
<path d="M202.294 261.88H35.8505C34.5466 261.877 33.2968 261.319 32.3757 260.328C31.4545 259.337 30.9371 257.993 30.9371 256.592V5.2413C30.9484 3.84858 31.4708 2.51692 32.3908 1.53555C33.3108 0.554187 34.554 0.0023858 35.8505 0H202.294C203.599 0 204.851 0.557085 205.774 1.5487C206.698 2.54032 207.216 3.88524 207.216 5.2876V256.592C207.216 257.995 206.698 259.34 205.774 260.331C204.851 261.323 203.599 261.88 202.294 261.88ZM35.8505 0.185206C34.6037 0.187659 33.4088 0.721434 32.528 1.66937C31.6473 2.61731 31.1526 3.90195 31.1526 5.2413V256.592C31.1526 257.932 31.6473 259.216 32.528 260.164C33.4088 261.112 34.6037 261.646 35.8505 261.648H202.294C203.542 261.646 204.737 261.113 205.62 260.165C206.502 259.217 206.998 257.933 207.001 256.592V5.2413C206.998 3.90109 206.502 2.61648 205.62 1.66881C204.737 0.721133 203.542 0.187654 202.294 0.185206H35.8505Z" fill="#EBEBEB"/>
<path d="M388.753 261.88H222.301C220.996 261.878 219.746 261.32 218.823 260.329C217.9 259.337 217.381 257.994 217.379 256.592V5.2413C217.392 3.84774 217.917 2.51608 218.838 1.53497C219.759 0.553864 221.004 0.00235978 222.301 0H388.753C390.048 0.00481949 391.289 0.557698 392.207 1.5388C393.125 2.51991 393.647 3.85018 393.658 5.2413V256.592C393.658 257.991 393.142 259.334 392.222 260.325C391.303 261.316 390.055 261.875 388.753 261.88ZM222.301 0.185206C221.053 0.187654 219.858 0.721133 218.975 1.66881C218.093 2.61648 217.597 3.90109 217.594 5.2413V256.592C217.597 257.933 218.093 259.217 218.975 260.165C219.858 261.113 221.053 261.646 222.301 261.648H388.753C390.001 261.646 391.196 261.113 392.079 260.165C392.961 259.217 393.457 257.933 393.46 256.592V5.2413C393.457 3.90109 392.961 2.61648 392.079 1.66881C391.196 0.721133 390.001 0.187654 388.753 0.185206H222.301Z" fill="#EBEBEB"/>
<path d="M378.496 24.0767H242.325V303.181H378.496V24.0767Z" fill="#EBEBEB"/>
<path d="M368.367 33.1794H252.454V303.181H368.367V33.1794Z" fill="#F5F5F5"/>
<path d="M326.715 55.5708H294.123V65.2478H326.715V55.5708Z" fill="white"/>
<path d="M341.395 151.701H359.075C359.806 151.701 360.508 152.014 361.025 152.569C361.543 153.125 361.833 153.879 361.833 154.665C361.833 155.451 361.543 156.204 361.025 156.76C360.508 157.316 359.806 157.628 359.075 157.628H341.395C340.664 157.628 339.962 157.316 339.445 156.76C338.927 156.204 338.637 155.451 338.637 154.665C338.637 153.879 338.927 153.125 339.445 152.569C339.962 152.014 340.664 151.701 341.395 151.701Z" fill="white"/>
<path d="M149.229 53.7744H58.6677V132.181H149.229V53.7744Z" fill="#EBEBEB"/>
<path d="M144.359 126.958V58.9971L63.5207 58.9971V126.958H144.359Z" fill="#FAFAFA"/>
<path d="M134.938 93.8712V90.6208H72.9511V93.8712H134.938Z" fill="#E0E0E0"/>
<path d="M134.938 101.27V98.0198H72.9511V101.27H134.938Z" fill="#E0E0E0"/>
<path d="M134.938 108.66V105.409H72.9511V108.66H134.938Z" fill="#E0E0E0"/>
<path d="M119.395 116.059V112.808H88.4925V116.059H119.395Z" fill="#E0E0E0"/>
<path d="M72.9941 58.9972C72.9942 60.3318 72.7485 61.6533 72.2712 62.8855C71.794 64.1178 71.0946 65.2364 70.2133 66.1772C69.332 67.1179 68.2862 67.8621 67.1362 68.3669C65.9861 68.8717 64.7545 69.1272 63.5121 69.1187C61.798 69.1232 60.1159 68.6201 58.6505 67.6648V53.7744H71.5805C72.4864 55.3442 72.9753 57.1503 72.9941 58.9972Z" fill="#EBEBEB"/>
<path d="M149.229 53.7744V67.6648C147.427 68.8293 145.314 69.3126 143.227 69.0378C141.14 68.763 139.198 67.7459 137.711 66.1485C136.224 64.551 135.277 62.465 135.021 60.2226C134.765 57.9802 135.215 55.7103 136.299 53.7744H149.229Z" fill="#EBEBEB"/>
<path d="M72.9937 126.967C72.9967 128.804 72.5316 130.607 71.6489 132.181H58.7189V118.291C60.1491 117.371 61.7806 116.874 63.4474 116.852C65.1142 116.83 66.7566 117.283 68.2074 118.165C69.6581 119.047 70.8654 120.326 71.7062 121.872C72.547 123.419 72.9912 125.177 72.9937 126.967Z" fill="#EBEBEB"/>
<path d="M149.23 118.281V132.172H136.3C135.41 130.601 134.942 128.797 134.946 126.958C134.948 125.165 135.392 123.404 136.234 121.856C137.076 120.308 138.285 119.027 139.737 118.144C141.19 117.261 142.835 116.807 144.504 116.83C146.173 116.852 147.807 117.35 149.238 118.272L149.23 118.281Z" fill="#EBEBEB"/>
<path d="M111.869 76.9374C112.579 72.2375 109.608 67.809 105.233 67.0461C100.858 66.2832 96.7357 69.4748 96.0255 74.1747C95.3154 78.8745 98.2863 83.303 102.661 84.0659C107.036 84.8288 111.158 81.6373 111.869 76.9374Z" fill="#E0E0E0"/>
<path d="M222.413 191.826H43.2202V198.753H222.413V191.826Z" fill="#EBEBEB"/>
<path d="M220.862 198.753H162.642V303.181H220.862V198.753Z" fill="#F5F5F5"/>
<path d="M103.655 198.753H45.4358V303.181H103.655V198.753Z" fill="#F5F5F5"/>
<path d="M47.427 198.753H45.4358V303.181H47.427V198.753Z" fill="#EBEBEB"/>
<path d="M164.633 198.753H162.642V303.181H164.633V198.753Z" fill="#EBEBEB"/>
<path d="M76.0112 175.13H65.3052L66.1672 191.826H75.1492L76.0112 175.13Z" fill="#F0F0F0"/>
<path d="M168.961 184.585H113.025V191.826H168.961V184.585Z" fill="#F0F0F0"/>
<path d="M168.969 185.437H143.178V190.983H168.969V185.437Z" fill="#FAFAFA"/>
<path d="M213.5 345C305.805 345 380.633 340.307 380.633 334.517C380.633 328.728 305.805 324.035 213.5 324.035C121.195 324.035 46.3668 328.728 46.3668 334.517C46.3668 340.307 121.195 345 213.5 345Z" fill="#F5F5F5"/>
<path d="M291.692 269.677C306.774 269.677 319.001 256.543 319.001 240.341C319.001 224.139 306.774 211.004 291.692 211.004C276.611 211.004 264.384 224.139 264.384 240.341C264.384 256.543 276.611 269.677 291.692 269.677Z" fill="white"/>
<path d="M291.692 270.038C286.224 270.04 280.879 268.3 276.331 265.038C271.784 261.776 268.24 257.138 266.146 251.712C264.052 246.286 263.504 240.314 264.569 234.553C265.635 228.791 268.267 223.499 272.133 219.345C275.999 215.19 280.925 212.361 286.287 211.214C291.65 210.068 297.209 210.655 302.261 212.903C307.312 215.15 311.63 218.957 314.668 223.841C317.706 228.725 319.328 234.467 319.328 240.341C319.321 248.213 316.408 255.761 311.227 261.329C306.046 266.896 299.02 270.029 291.692 270.038ZM291.692 211.375C286.357 211.375 281.142 213.074 276.706 216.258C272.271 219.443 268.814 223.969 266.773 229.264C264.731 234.559 264.198 240.385 265.239 246.006C266.281 251.627 268.85 256.79 272.623 260.842C276.396 264.894 281.203 267.653 286.436 268.77C291.668 269.887 297.092 269.312 302.02 267.117C306.948 264.923 311.16 261.207 314.123 256.441C317.085 251.675 318.666 246.072 318.664 240.341C318.657 232.659 315.813 225.294 310.756 219.863C305.699 214.433 298.843 211.38 291.692 211.375Z" fill="#407BFF"/>
<path d="M296.089 223.709H287.296V256.972H296.089V223.709Z" fill="#407BFF"/>
<path d="M307.174 245.073V235.627H276.211V245.073H307.174Z" fill="#407BFF"/>
<path d="M106.707 18.5854L106.121 17.9094C110.111 13.8571 115.174 11.2361 120.611 10.4086L120.732 11.3346C115.47 12.1317 110.569 14.6655 106.707 18.5854Z" fill="#407BFF"/>
<path d="M100.328 28.7068L99.5263 28.3734C100.396 26.0144 101.556 23.7908 102.974 21.7616L103.664 22.3172C102.296 24.2809 101.175 26.4292 100.328 28.7068Z" fill="#407BFF"/>
<path d="M124.378 64.1828C137.441 64.1828 148.031 52.8063 148.031 38.7727C148.031 24.7391 137.441 13.3625 124.378 13.3625C111.314 13.3625 100.724 24.7391 100.724 38.7727C100.724 52.8063 111.314 64.1828 124.378 64.1828Z" fill="#407BFF"/>
<path d="M138.506 27.3271C137.595 26.3111 136.504 25.5004 135.298 24.9425C134.092 24.3846 132.795 24.0905 131.482 24.0776C130.169 24.0647 128.866 24.3331 127.651 24.8672C126.436 25.4013 125.332 26.1903 124.403 27.1882C123.476 26.1906 122.373 25.4017 121.158 24.8678C119.943 24.3338 118.642 24.0654 117.329 24.0784C116.017 24.0913 114.72 24.3853 113.515 24.9431C112.31 25.5009 111.22 26.3114 110.31 27.3271C108.526 29.3999 107.565 32.1384 107.631 34.9605C107.697 37.7826 108.785 40.4658 110.663 42.4398L121.869 54.4781C122.205 54.8393 122.605 55.1258 123.044 55.3213C123.483 55.5168 123.954 55.6174 124.429 55.6174C124.905 55.6174 125.376 55.5168 125.815 55.3213C126.254 55.1258 126.653 54.8393 126.99 54.4781L138.195 42.4398C140.068 40.4596 141.148 37.7731 141.206 34.9511C141.264 32.1291 140.295 29.394 138.506 27.3271Z" fill="white"/>
<path d="M124.378 49.8758C124.204 49.8694 124.036 49.8068 123.896 49.696C123.756 49.5853 123.651 49.4317 123.593 49.2554L118.602 33.5778L116.516 40.134C116.457 40.3162 116.346 40.474 116.2 40.5852C116.053 40.6964 115.877 40.7556 115.698 40.7545H107.345C107.116 40.7545 106.897 40.6569 106.735 40.4832C106.574 40.3096 106.483 40.074 106.483 39.8284C106.483 39.5828 106.574 39.3473 106.735 39.1736C106.897 39 107.116 38.9024 107.345 38.9024H115.103L117.809 30.4107C117.868 30.2288 117.978 30.071 118.124 29.9593C118.27 29.8476 118.445 29.7876 118.624 29.7876C118.803 29.7876 118.978 29.8476 119.124 29.9593C119.27 30.071 119.38 30.2288 119.439 30.4107L124.516 46.3662L129.446 33.8926C129.509 33.7336 129.611 33.5965 129.742 33.4967C129.873 33.3969 130.027 33.3384 130.188 33.3277C130.349 33.3178 130.51 33.3568 130.652 33.4403C130.793 33.5238 130.91 33.6484 130.989 33.8L133.593 38.8931H141.445C141.674 38.8931 141.893 38.9907 142.055 39.1644C142.217 39.338 142.307 39.5736 142.307 39.8192C142.307 40.0648 142.217 40.3003 142.055 40.474C141.893 40.6476 141.674 40.7452 141.445 40.7452H133.093C132.938 40.7466 132.787 40.7035 132.653 40.6204C132.52 40.5373 132.41 40.4173 132.334 40.2729L130.291 36.3466L125.171 49.3109C125.105 49.4783 124.995 49.6211 124.853 49.7216C124.712 49.822 124.547 49.8757 124.378 49.8758Z" fill="#407BFF"/>
<path d="M255.617 302.07H165.65C164.184 302.087 162.731 301.777 161.383 301.158C160.034 300.54 158.821 299.627 157.819 298.477C156.817 297.327 156.048 295.966 155.562 294.48C155.076 292.995 154.883 291.416 154.996 289.846L169.538 58.3397C169.792 55.0334 171.181 51.9467 173.435 49.6792C175.689 47.4116 178.647 46.1252 181.735 46.0698H271.719C273.189 46.0518 274.646 46.3634 275.998 46.9846C277.349 47.6059 278.565 48.5232 279.568 49.678C280.571 50.8327 281.338 52.1995 281.821 53.6909C282.304 55.1824 282.492 56.7657 282.374 58.3397L267.806 289.846C267.544 293.143 266.152 296.219 263.9 298.477C261.649 300.735 258.697 302.015 255.617 302.07Z" fill="#263238"/>
<path d="M275.564 140.348H273.297C272.887 140.354 272.48 140.267 272.102 140.093C271.725 139.92 271.385 139.664 271.105 139.341C270.825 139.019 270.611 138.637 270.476 138.22C270.342 137.804 270.29 137.362 270.323 136.922L273.107 92.6673C273.172 91.7417 273.558 90.8761 274.189 90.2415C274.819 89.607 275.648 89.2499 276.512 89.241H278.779C279.19 89.2356 279.597 89.3224 279.974 89.4958C280.352 89.6692 280.691 89.9254 280.971 90.2479C281.251 90.5705 281.465 90.9523 281.6 91.3689C281.735 91.7855 281.787 92.2277 281.753 92.6673L278.969 136.922C278.904 137.848 278.518 138.713 277.888 139.348C277.257 139.982 276.428 140.339 275.564 140.348Z" fill="#263238"/>
<path d="M168.228 110.827H165.969C165.635 110.832 165.304 110.762 164.996 110.622C164.688 110.482 164.411 110.274 164.182 110.013C163.952 109.752 163.776 109.443 163.664 109.105C163.552 108.766 163.506 108.407 163.53 108.049L164.538 92.0655C164.602 91.3151 164.922 90.6165 165.435 90.1037C165.949 89.591 166.621 89.3003 167.323 89.2874H169.59C169.923 89.2853 170.253 89.357 170.559 89.4981C170.865 89.6392 171.141 89.8465 171.369 90.1073C171.597 90.368 171.773 90.6764 171.885 91.0134C171.997 91.3503 172.043 91.7085 172.021 92.0655L171.012 108.049C170.95 108.8 170.631 109.5 170.117 110.013C169.603 110.526 168.93 110.816 168.228 110.827Z" fill="#407BFF"/>
<path d="M166.435 139.367H164.168C163.835 139.37 163.504 139.299 163.197 139.159C162.891 139.018 162.614 138.811 162.386 138.55C162.158 138.289 161.982 137.98 161.87 137.642C161.759 137.305 161.713 136.946 161.737 136.589L162.746 120.606C162.809 119.855 163.129 119.157 163.643 118.644C164.157 118.131 164.829 117.84 165.53 117.827H167.814C168.147 117.825 168.477 117.897 168.783 118.038C169.09 118.179 169.365 118.387 169.593 118.647C169.822 118.908 169.997 119.216 170.109 119.553C170.221 119.89 170.268 120.249 170.245 120.606L169.237 136.589C169.175 137.343 168.853 138.045 168.335 138.559C167.817 139.073 167.14 139.361 166.435 139.367Z" fill="#407BFF"/>
<path d="M253.712 302.069H163.746C162.28 302.087 160.826 301.776 159.478 301.158C158.13 300.539 156.916 299.626 155.914 298.477C154.912 297.327 154.144 295.966 153.658 294.48C153.172 292.994 152.979 291.416 153.091 289.846L167.642 58.3395C167.905 55.032 169.303 51.9479 171.566 49.6869C173.828 47.426 176.792 46.1498 179.882 46.1067H269.815C271.281 46.0891 272.735 46.3997 274.084 47.0187C275.433 47.6378 276.647 48.5517 277.65 49.7023C278.652 50.853 279.42 52.2152 279.905 53.7022C280.391 55.1892 280.583 56.7684 280.469 58.3395L265.91 289.846C265.647 293.144 264.255 296.221 262.001 298.479C259.748 300.738 256.794 302.017 253.712 302.069Z" fill="#407BFF"/>
<path opacity="0.3" d="M154.04 287.253L168.246 61.3398H279.495L265.289 287.253H154.04Z" fill="white"/>
<path opacity="0.1" d="M197.958 287.253L237.662 61.3398H262.582L222.879 287.253H197.958Z" fill="white"/>
<path opacity="0.1" d="M179.132 287.253L218.836 61.3398H231.464L191.761 287.253H179.132Z" fill="white"/>
<path d="M213.621 51.7834H235.317C235.499 51.7801 235.678 51.8177 235.845 51.8937C236.012 51.9698 236.162 52.0826 236.285 52.2249C236.409 52.3672 236.503 52.5358 236.562 52.7198C236.621 52.9038 236.643 53.099 236.628 53.2928C236.598 53.7008 236.428 54.0823 236.15 54.363C235.873 54.6437 235.509 54.8036 235.128 54.8115H213.431C213.25 54.8135 213.07 54.7747 212.903 54.6976C212.736 54.6205 212.587 54.5068 212.463 54.3638C212.34 54.2208 212.246 54.0516 212.187 53.8672C212.128 53.6827 212.105 53.4871 212.121 53.2928C212.151 52.8857 212.321 52.5053 212.599 52.2261C212.876 51.9469 213.241 51.7891 213.621 51.7834Z" fill="white"/>
<path d="M209.104 324.34L201.501 325.118L198.76 306.274L206.363 305.487L209.104 324.34Z" fill="#FFB573"/>
<path d="M200.631 321.127L208.595 318.469C208.733 318.418 208.883 318.426 209.015 318.492C209.147 318.557 209.25 318.676 209.302 318.821L211.888 325.609C211.953 325.791 211.981 325.985 211.972 326.18C211.963 326.374 211.916 326.564 211.835 326.738C211.754 326.912 211.641 327.066 211.501 327.191C211.362 327.315 211.2 327.407 211.026 327.461C208.147 328.387 205.406 328.6 201.932 330.239C197.872 332.091 196.174 334.573 191.804 334.573C188.675 334.573 187.968 331.489 189.295 331.063C195.329 329.1 194.536 327.489 198.915 322.424C199.371 321.837 199.962 321.389 200.631 321.127Z" fill="#263238"/>
<path opacity="0.2" d="M198.76 306.274L200.174 315.997L207.785 315.21L206.371 305.487L198.76 306.274Z" fill="black"/>
<path d="M204.259 68.1555C194.286 66.8961 184.364 67.7388 174.408 69.8131C172.749 70.1591 171.236 71.0636 170.087 72.3955C168.939 73.7275 168.215 75.4178 168.021 77.2213C166.943 87.4631 165.711 110.419 170.521 144.664L211.276 140.96C211.354 134.746 207.242 106.437 210.638 77.0639C210.777 76.027 210.721 74.9707 210.474 73.9573C210.227 72.9439 209.793 71.994 209.199 71.1637C208.604 70.3333 207.861 69.6393 207.012 69.1227C206.164 68.606 205.228 68.2772 204.259 68.1555Z" fill="white"/>
<path d="M180.529 76.9341L181.985 80.0641C182.053 80.222 182.161 80.3562 182.297 80.4511C182.433 80.5461 182.591 80.5981 182.752 80.6012L184.33 80.6938C184.611 80.7069 184.888 80.6153 185.114 80.4345L187.83 78.2583L184.476 75.6377L180.529 76.9341Z" fill="#263238"/>
<path d="M184.382 79.7955C183.807 79.5094 183.155 79.4535 182.546 79.6381C181.261 84.4997 179.856 98.4549 179.71 104.641C183.606 116.837 184.882 118.068 184.882 118.068L186.856 103.391C186.856 103.391 184.64 88.3798 184.382 79.7955Z" fill="#263238"/>
<path d="M195.631 47.042C194.7 53.0797 193.907 64.1086 197.941 68.0072C194.984 71.3409 191.114 75.2024 184.476 75.6376C177.839 76.0729 178.865 71.1372 180.546 68.498C186.743 66.72 186.442 61.7565 185.226 57.1171L195.631 47.042Z" fill="#FFB573"/>
<path d="M199.631 67.4797C199.161 67.2619 198.673 67.0914 198.174 66.9703C198.052 66.9356 197.922 66.9449 197.806 66.9968C197.689 67.0486 197.591 67.1402 197.527 67.2574C196.89 68.4242 194.941 73.6377 184.477 75.6379C186.201 76.7306 188.485 80.1199 189.468 81.7497C192.605 79.9995 200.769 74.7675 199.993 67.9982C199.977 67.8864 199.936 67.7805 199.872 67.69C199.809 67.5996 199.726 67.5273 199.631 67.4797Z" fill="#F5F5F5"/>
<path d="M180.606 68.7758C180.628 68.6704 180.625 68.5608 180.598 68.4569C180.571 68.353 180.519 68.258 180.449 68.1808C180.379 68.1035 180.292 68.0463 180.196 68.0143C180.1 67.9824 179.998 67.9768 179.899 67.9979C179.537 68.0735 179.18 68.1756 178.83 68.3035C178.75 68.3374 178.674 68.3842 178.606 68.4424C177.805 69.2388 173.434 76.0173 177.529 81.4993C178.391 80.0084 181.365 76.6285 184.476 75.6376C181.528 74.2115 180.08 71.5538 180.606 68.7758Z" fill="#F5F5F5"/>
<path opacity="0.2" d="M191.39 51.1538L185.235 57.1174C185.532 58.1945 185.739 59.2977 185.856 60.4141C188.235 59.9788 191.433 57.0804 191.605 54.3949C191.722 53.3095 191.649 52.2104 191.39 51.1538Z" fill="black"/>
<path d="M183.166 28.7901C177.856 31.0218 177.511 35.7075 177.994 40.8284C178.477 45.9493 183.666 42.5601 184.821 39.356C185.976 36.152 190.519 25.6972 183.166 28.7901Z" fill="#263238"/>
<path d="M200.105 39.0042C198.631 47.0699 198.139 51.8575 193.847 55.5708C187.373 61.127 178.606 56.3302 177.831 48.0145C177.132 40.5229 179.658 28.5679 187.39 26.2343C189.077 25.701 190.863 25.6495 192.574 26.0851C194.284 26.5206 195.859 27.428 197.143 28.7176C198.427 30.0072 199.376 31.6345 199.895 33.4385C200.415 35.2426 200.487 37.161 200.105 39.0042Z" fill="#FFB573"/>
<path d="M199.795 45.6809C193.476 46.042 194.812 42.1897 195.959 39.9765C197.105 37.7633 194.769 34.1055 196.295 32.2072C193.571 33.374 190.7 32.4109 187.054 29.6884C184.227 27.5678 180.684 36.0409 177.236 31.7905C173.978 27.7808 177.003 21.7338 184.83 20.7615C192.657 19.7892 194.079 25.7343 199.217 25.2064C204.354 24.6786 202.57 29.2254 201.562 30.1514C205.872 30.457 208.225 34.8834 199.795 45.6809Z" fill="#263238"/>
<path d="M200.57 30.7161C201.559 30.1336 202.385 29.2779 202.962 28.2376C203.539 27.1972 203.848 26.01 203.855 24.7988C205.561 28.0121 205.38 31.6607 200.57 30.7161Z" fill="#263238"/>
<path d="M184.192 47.6164C184.879 47.7441 185.583 47.7213 186.261 47.5495C186.94 47.3776 187.579 47.0602 188.14 46.6163C188.157 46.599 188.17 46.5782 188.18 46.5551C188.189 46.532 188.194 46.5071 188.194 46.482C188.194 46.4569 188.189 46.432 188.18 46.409C188.17 46.3859 188.157 46.365 188.14 46.3477C188.106 46.3132 188.062 46.2939 188.015 46.2939C187.968 46.2939 187.924 46.3132 187.89 46.3477C187.261 46.8265 186.538 47.1417 185.776 47.2687C185.015 47.3956 184.237 47.3308 183.502 47.0793C183.456 47.0668 183.406 47.073 183.363 47.0969C183.32 47.1208 183.287 47.1606 183.27 47.2089C183.256 47.2581 183.261 47.3109 183.284 47.356C183.307 47.401 183.345 47.4347 183.39 47.4497C183.652 47.5309 183.921 47.5867 184.192 47.6164Z" fill="#263238"/>
<path d="M201.63 48.1532C200.45 49.7872 198.72 50.858 196.812 51.135C194.303 51.4869 193.467 48.9773 194.519 46.6345C195.476 44.5232 197.967 41.8006 200.277 42.5322C202.587 43.2638 203.079 46.1159 201.63 48.1532Z" fill="#FFB573"/>
<path d="M199.14 223.515C199.441 199.336 202.32 141.747 202.32 141.747L170.547 144.627C170.547 144.627 176.866 203.975 180.676 228.645C184.641 254.286 196.804 314.358 196.804 314.358L209.734 313.172C209.734 313.172 205.01 242.211 199.14 223.515Z" fill="#263238"/>
<path d="M196.027 314.738L211.362 313.339L210.759 308.024L194.777 309.172L196.027 314.738Z" fill="#407BFF"/>
<path d="M188.778 39.4858C188.7 40.1432 188.304 40.6433 187.916 40.597C187.528 40.5507 187.261 39.9765 187.347 39.3098C187.433 38.6431 187.821 38.1523 188.209 38.1986C188.597 38.2449 188.864 38.8283 188.778 39.4858Z" fill="#263238"/>
<path d="M181.744 38.8932C181.666 39.5599 181.27 40.0507 180.882 40.0044C180.494 39.9581 180.227 39.384 180.313 38.7265C180.399 38.069 180.787 37.569 181.175 37.6153C181.563 37.6616 181.83 38.1987 181.744 38.8932Z" fill="#263238"/>
<path d="M183.727 39.6709C182.688 41.3845 181.442 42.9416 180.02 44.301C180.934 45.3289 182.821 45.0511 182.821 45.0511L183.727 39.6709Z" fill="#ED893E"/>
<path opacity="0.4" d="M177.296 39.0598C177.167 40.1155 178.158 40.9952 179.528 41.1804C180.899 41.3656 182.166 40.56 182.287 39.5043" fill="#407BFF"/>
<path opacity="0.4" d="M185.442 40.0415C185.252 41.0879 186.209 42.0325 187.554 42.3103C188.899 42.5881 190.217 41.8473 190.399 40.8101" fill="#407BFF"/>
<path d="M188.088 42.5973C187.933 42.6065 187.778 42.6065 187.623 42.5973C186.96 42.5121 186.337 42.2117 185.838 41.7361C185.62 41.536 185.45 41.2828 185.342 40.9976C185.234 40.7124 185.192 40.4036 185.218 40.097C184.78 39.8924 184.314 39.7672 183.838 39.7266C183.36 39.5984 182.86 39.5984 182.382 39.7266C182.261 40.8563 180.951 41.6342 179.485 41.4397C178.823 41.3619 178.199 41.0641 177.701 40.5878C177.484 40.3868 177.315 40.1334 177.207 39.8485C177.099 39.5636 177.056 39.2552 177.08 38.9487L177.494 39.0043C177.477 39.2411 177.512 39.4789 177.598 39.698C177.683 39.917 177.816 40.111 177.985 40.2637C178.42 40.6743 178.962 40.9299 179.537 40.9952C180.778 41.1712 181.882 40.5508 181.994 39.6247C182.054 39.1062 183.054 39.1432 183.881 39.2543C184.709 39.3654 185.692 39.6155 185.605 40.1248C185.587 40.3617 185.623 40.5997 185.708 40.8189C185.794 41.0381 185.927 41.232 186.097 41.3842C186.536 41.7893 187.077 42.0472 187.651 42.1262C188.226 42.2052 188.809 42.1018 189.329 41.8287C189.53 41.7283 189.705 41.5774 189.84 41.3888C189.976 41.2002 190.066 40.9795 190.105 40.7452V40.523L200.742 41.9954L200.69 42.4398L190.45 41.023C190.375 41.2808 190.253 41.5196 190.09 41.725C189.927 41.9303 189.727 42.0979 189.502 42.2176C189.066 42.4653 188.581 42.5956 188.088 42.5973Z" fill="#263238"/>
<path d="M191.485 36.5781C191.546 36.5783 191.606 36.5589 191.657 36.5225C191.741 36.4701 191.802 36.3846 191.828 36.2842C191.854 36.1838 191.842 36.0765 191.795 35.9854C191.528 35.4468 191.141 34.9875 190.669 34.6482C190.197 34.309 189.654 34.1003 189.088 34.0408C188.991 34.0357 188.897 34.0716 188.824 34.1409C188.751 34.2101 188.707 34.3072 188.7 34.4112C188.696 34.5128 188.728 34.6124 188.791 34.6886C188.854 34.7648 188.942 34.8115 189.037 34.8186C189.484 34.875 189.912 35.0479 190.283 35.3223C190.654 35.5966 190.957 35.9641 191.166 36.3929C191.198 36.4518 191.245 36.5001 191.301 36.5327C191.358 36.5654 191.421 36.581 191.485 36.5781Z" fill="#263238"/>
<path d="M179.469 35.5316C179.528 35.5378 179.588 35.5285 179.644 35.5043C179.699 35.4801 179.749 35.4418 179.787 35.3927C180.066 35.0005 180.427 34.684 180.84 34.4685C181.253 34.253 181.707 34.1446 182.167 34.1518C182.214 34.1569 182.262 34.1518 182.308 34.1369C182.354 34.1219 182.396 34.0973 182.433 34.0646C182.47 34.0319 182.5 33.9917 182.523 33.9462C182.545 33.9008 182.559 33.8511 182.563 33.7999C182.569 33.75 182.566 33.6993 182.553 33.6507C182.541 33.6022 182.52 33.5568 182.491 33.5171C182.462 33.4775 182.426 33.4444 182.385 33.4198C182.344 33.3953 182.299 33.3796 182.253 33.3739C181.674 33.3576 181.099 33.4874 180.575 33.7527C180.051 34.0181 179.593 34.4116 179.236 34.9019C179.174 34.9806 179.144 35.0822 179.152 35.1846C179.161 35.2869 179.206 35.3817 179.279 35.4482C179.335 35.4917 179.4 35.5202 179.469 35.5316Z" fill="#263238"/>
<path d="M225.611 219.616C219.017 183.205 217.534 154.73 211.276 140.904L180.494 144.608C180.494 144.608 198.829 198.864 207.785 222.024C217.086 246.101 235.447 287.235 235.447 287.235H250.825C250.825 287.235 236.472 236.201 225.611 219.616Z" fill="#263238"/>
<path d="M128.041 81.7774L124.714 79.5179C124.174 79.1441 123.53 78.9831 122.892 79.0625C122.253 79.1419 121.661 79.4566 121.214 79.9531L118.956 82.5089C118.713 82.7848 118.525 83.1113 118.403 83.4683C118.282 83.8253 118.231 84.2052 118.252 84.5844C118.273 84.9637 118.366 85.3344 118.526 85.6734C118.685 86.0125 118.908 86.3127 119.18 86.5556L120.792 88.0373C122.194 89.3137 123.83 90.2601 125.593 90.8154L130.463 92.3618L133.661 88.6577C134.636 84.7962 128.041 81.7774 128.041 81.7774Z" fill="#FFB573"/>
<path d="M177.296 80.0456C176.09 83.2126 174.909 86.1574 173.624 89.167C172.34 92.1765 171.038 95.1491 169.599 98.1031C168.159 101.057 166.625 103.993 164.884 106.937C164.022 108.401 163.065 109.864 161.979 111.336C160.811 112.96 159.481 114.441 158.013 115.753C157.044 116.604 155.975 117.314 154.833 117.864C154.471 118.013 154.134 118.161 153.738 118.29L153.134 118.466C152.831 118.547 152.523 118.605 152.212 118.642C151.161 118.77 150.098 118.688 149.074 118.402C147.795 118.017 146.579 117.42 145.471 116.633C144.641 116.077 143.849 115.458 143.101 114.781C140.613 112.448 138.32 109.885 136.248 107.123C134.239 104.53 132.343 101.928 130.524 99.2699C128.705 96.6122 126.956 94.0008 125.163 91.2135L134.696 84.6017C137.705 89.819 141.034 94.8152 144.661 99.557C146.328 101.753 148.165 103.795 150.152 105.659C150.537 105.998 150.943 106.307 151.367 106.586C151.686 106.817 152.005 106.91 151.781 106.826C151.478 106.737 151.161 106.718 150.85 106.771C150.725 106.783 150.601 106.808 150.48 106.845H150.411C150.367 106.845 150.367 106.845 150.359 106.845C150.555 106.707 150.742 106.556 150.919 106.391C151.706 105.624 152.419 104.774 153.048 103.854C153.781 102.798 154.514 101.613 155.212 100.381C156.639 97.8204 157.94 95.1807 159.108 92.4729C160.315 89.6948 161.479 86.9167 162.556 84.0275C163.634 81.1383 164.659 78.2028 165.53 75.397L177.296 80.0456Z" fill="#407BFF"/>
<g opacity="0.6">
<path d="M177.296 80.0456C176.09 83.2126 174.909 86.1574 173.624 89.167C172.34 92.1765 171.038 95.1491 169.599 98.1031C168.159 101.057 166.625 103.993 164.884 106.937C164.022 108.401 163.065 109.864 161.979 111.336C160.811 112.96 159.481 114.441 158.013 115.753C157.044 116.604 155.975 117.314 154.833 117.864C154.471 118.013 154.134 118.161 153.738 118.29L153.134 118.466C152.831 118.547 152.523 118.605 152.212 118.642C151.161 118.77 150.098 118.688 149.074 118.402C147.795 118.017 146.579 117.42 145.471 116.633C144.641 116.077 143.849 115.458 143.101 114.781C140.613 112.448 138.32 109.885 136.248 107.123C134.239 104.53 132.343 101.928 130.524 99.2699C128.705 96.6122 126.956 94.0008 125.163 91.2135L134.696 84.6017C137.705 89.819 141.034 94.8152 144.661 99.557C146.328 101.753 148.165 103.795 150.152 105.659C150.537 105.998 150.943 106.307 151.367 106.586C151.686 106.817 152.005 106.91 151.781 106.826C151.478 106.737 151.161 106.718 150.85 106.771C150.725 106.783 150.601 106.808 150.48 106.845H150.411C150.367 106.845 150.367 106.845 150.359 106.845C150.555 106.707 150.742 106.556 150.919 106.391C151.706 105.624 152.419 104.774 153.048 103.854C153.781 102.798 154.514 101.613 155.212 100.381C156.639 97.8204 157.94 95.1807 159.108 92.4729C160.315 89.6948 161.479 86.9167 162.556 84.0275C163.634 81.1383 164.659 78.2028 165.53 75.397L177.296 80.0456Z" fill="white"/>
</g>
<path d="M199.863 65.8311C196.631 72.3133 185.123 97.0104 183.726 112.253C178.632 98.3624 179.744 67.6369 179.744 67.6369C176.113 68.0171 172.552 68.9525 169.167 70.415C168.077 70.8964 167.131 71.6928 166.436 72.716C165.741 73.7392 165.322 74.9492 165.228 76.2119C164.236 92.1101 164.704 108.075 166.624 123.874C170.202 153.785 173.52 200.299 173.52 200.299C173.52 200.299 202.01 199.021 223.991 194.039C221.31 171.176 212.138 132.857 212.052 122.596C211.948 109.391 212.233 83.5738 212.621 72.7949C212.686 71.273 212.242 69.7764 211.369 68.5756C210.496 67.3749 209.253 66.5492 207.862 66.2479C205.226 65.7229 202.535 65.5827 199.863 65.8311Z" fill="#407BFF"/>
<path opacity="0.7" d="M199.863 65.8312C196.631 72.3133 185.123 97.0104 183.726 112.253C178.632 98.3624 179.744 67.6369 179.744 67.6369C176.113 68.0171 172.552 68.9525 169.167 70.415C168.077 70.8964 167.131 71.6929 166.436 72.716C165.741 73.7392 165.322 74.9492 165.228 76.2119C164.236 92.1101 164.704 108.075 166.624 123.874C170.202 153.785 173.52 200.299 173.52 200.299C173.52 200.299 202.01 199.021 223.991 194.039C221.31 171.176 212.138 132.857 212.052 122.597C211.948 109.391 212.233 83.5645 212.621 72.7856C212.702 71.3101 212.296 69.851 211.475 68.6652C210.653 67.4795 209.469 66.6431 208.13 66.3034C205.408 65.7304 202.626 65.5715 199.863 65.8312Z" fill="white"/>
<path d="M193.149 195.336C188.201 166.009 184.279 122.976 183.96 117.8H184.399C184.718 122.976 188.649 165.953 193.588 195.28L193.149 195.336Z" fill="white"/>
<path d="M190.683 143.164H164.409C163.879 143.138 163.37 142.928 162.96 142.566C162.55 142.204 162.26 141.708 162.134 141.154L153.35 97.2883C153.285 97.0488 153.275 96.7964 153.319 96.5517C153.363 96.3071 153.461 96.0772 153.604 95.881C153.747 95.6848 153.932 95.5279 154.142 95.4232C154.353 95.3185 154.583 95.269 154.815 95.2788H181.08C181.612 95.3025 182.123 95.5113 182.535 95.8738C182.947 96.2362 183.238 96.7326 183.365 97.2883L192.148 141.154C192.213 141.394 192.223 141.646 192.179 141.891C192.135 142.135 192.037 142.365 191.894 142.561C191.751 142.758 191.567 142.914 191.356 143.019C191.145 143.124 190.915 143.173 190.683 143.164Z" fill="white"/>
<path d="M189.864 143.534H163.142C162.602 143.507 162.084 143.293 161.666 142.924C161.249 142.555 160.953 142.051 160.823 141.487L151.884 96.8806C151.82 96.6362 151.811 96.379 151.857 96.1299C151.903 95.8809 152.004 95.647 152.15 95.4475C152.296 95.248 152.484 95.0885 152.699 94.9819C152.913 94.8753 153.148 94.8246 153.384 94.8341H180.106C180.646 94.8612 181.164 95.075 181.582 95.4438C182 95.8126 182.296 96.3166 182.425 96.8806L191.355 141.487C191.421 141.731 191.432 141.988 191.387 142.237C191.342 142.486 191.243 142.721 191.097 142.921C190.952 143.12 190.764 143.28 190.549 143.387C190.335 143.493 190.1 143.544 189.864 143.534Z" fill="#407BFF"/>
<path d="M192.924 118.364L186.278 118.096C185.479 118.066 184.683 118.218 183.942 118.54L180.494 120.022C180.171 120.16 179.876 120.366 179.629 120.629C179.381 120.891 179.186 121.205 179.054 121.551C178.922 121.897 178.856 122.268 178.861 122.641C178.865 123.015 178.94 123.384 179.081 123.726L180.46 126.93C180.738 127.552 181.207 128.051 181.788 128.345C182.369 128.638 183.026 128.708 183.649 128.541L187.451 127.523C187.451 127.523 194.588 126.912 194.847 122.893L192.924 118.364Z" fill="#FFB573"/>
<path d="M211.276 69.8037C212.923 72.5818 214.431 75.1191 215.914 77.8416C217.397 80.5641 218.853 83.2589 220.224 86.074C221.595 88.8891 222.896 91.7968 224.077 94.9083C224.69 96.5377 225.214 98.2043 225.646 99.8995C226.202 101.966 226.458 104.111 226.405 106.261V106.622C226.408 106.684 226.408 106.746 226.405 106.808C226.405 107.141 226.318 107.474 226.258 107.808C226.198 108.141 226.12 108.4 226.034 108.734C225.948 109.067 225.853 109.243 225.758 109.502C225.429 110.304 225.006 111.057 224.5 111.743C223.795 112.689 222.994 113.546 222.112 114.299C220.756 115.446 219.314 116.472 217.802 117.364C215.141 118.927 212.401 120.331 209.596 121.569C206.88 122.809 204.174 123.939 201.45 125.004C198.726 126.069 196.045 127.097 193.209 128.116L189.925 116.448C192.511 115.688 195.148 114.753 197.726 113.808C200.303 112.864 202.898 111.808 205.346 110.706C207.748 109.64 210.091 108.425 212.363 107.067C213.321 106.496 214.235 105.843 215.095 105.113C215.321 104.929 215.524 104.714 215.698 104.474C215.624 104.564 215.566 104.667 215.526 104.78C215.526 104.863 215.483 104.919 215.44 105.02C215.406 105.129 215.38 105.241 215.362 105.354C215.326 105.496 215.303 105.642 215.293 105.789C215.293 105.845 215.293 105.854 215.293 105.835V105.771C215.233 104.892 215.074 104.024 214.819 103.187C214.475 101.975 214.066 100.784 213.595 99.6217C212.541 97.0586 211.35 94.5633 210.027 92.1487C208.682 89.6669 207.251 87.1852 205.717 84.7405C204.182 82.2958 202.613 79.8603 201.036 77.6379L211.276 69.8037Z" fill="#407BFF"/>
<g opacity="0.7">
<path d="M211.276 69.8037C212.923 72.5818 214.431 75.1191 215.914 77.8416C217.397 80.5641 218.853 83.2589 220.224 86.074C221.595 88.8891 222.896 91.7968 224.077 94.9083C224.69 96.5377 225.214 98.2043 225.646 99.8995C226.202 101.966 226.458 104.111 226.405 106.261V106.622C226.408 106.684 226.408 106.746 226.405 106.808C226.405 107.141 226.318 107.474 226.258 107.808C226.198 108.141 226.12 108.4 226.034 108.734C225.948 109.067 225.853 109.243 225.758 109.502C225.429 110.304 225.006 111.057 224.5 111.743C223.795 112.689 222.994 113.546 222.112 114.299C220.756 115.446 219.314 116.472 217.802 117.364C215.141 118.927 212.401 120.331 209.596 121.569C206.88 122.809 204.174 123.939 201.45 125.004C198.726 126.069 196.045 127.097 193.209 128.116L189.925 116.448C192.511 115.688 195.148 114.753 197.726 113.808C200.303 112.864 202.898 111.808 205.346 110.706C207.748 109.64 210.091 108.425 212.363 107.067C213.321 106.496 214.235 105.843 215.095 105.113C215.321 104.929 215.524 104.714 215.698 104.474C215.624 104.564 215.566 104.667 215.526 104.78C215.526 104.863 215.483 104.919 215.44 105.02C215.406 105.129 215.38 105.241 215.362 105.354C215.326 105.496 215.303 105.642 215.293 105.789C215.293 105.845 215.293 105.854 215.293 105.835V105.771C215.233 104.892 215.074 104.024 214.819 103.187C214.475 101.975 214.066 100.784 213.595 99.6217C212.541 97.0586 211.35 94.5633 210.027 92.1487C208.682 89.6669 207.251 87.1852 205.717 84.7405C204.182 82.2958 202.613 79.8603 201.036 77.6379L211.276 69.8037Z" fill="white"/>
</g>
<path d="M202.553 101.937C202.495 101.936 202.439 101.92 202.389 101.889C202.339 101.858 202.298 101.814 202.268 101.761C202.243 101.721 202.226 101.675 202.217 101.627C202.209 101.579 202.209 101.53 202.219 101.483C202.228 101.435 202.247 101.39 202.273 101.35C202.3 101.311 202.333 101.277 202.372 101.252L203.716 100.326C204.972 99.4753 205.957 98.2355 206.542 96.7705C207.127 95.3054 207.284 93.6841 206.992 92.121L204.285 77.3972C204.087 76.2963 203.549 75.2994 202.758 74.5677C201.967 73.836 200.97 73.4123 199.927 73.3652C198.884 73.3181 197.857 73.6503 197.012 74.308C196.166 74.9658 195.552 75.9106 195.269 76.9898L191.433 91.4265C191.014 92.9526 191.037 94.5794 191.499 96.0911C191.961 97.6028 192.84 98.9279 194.019 99.8904L195.295 100.928C195.366 100.988 195.413 101.076 195.424 101.173C195.436 101.271 195.411 101.369 195.355 101.446C195.328 101.484 195.294 101.516 195.256 101.54C195.217 101.563 195.175 101.579 195.131 101.585C195.086 101.591 195.042 101.587 194.999 101.575C194.956 101.562 194.916 101.54 194.881 101.511L193.674 100.483C192.378 99.4344 191.409 97.9871 190.896 96.3332C190.384 94.6793 190.351 92.8969 190.804 91.2228L194.648 76.7861C194.978 75.5533 195.684 74.4754 196.653 73.7254C197.621 72.9753 198.797 72.5966 199.99 72.65C201.183 72.7034 202.324 73.1858 203.231 74.0198C204.139 74.8539 204.759 75.9911 204.992 77.2491L207.699 91.9821C208.018 93.6897 207.847 95.4613 207.209 97.0621C206.57 98.6629 205.493 100.017 204.122 100.946L202.768 101.872C202.738 101.898 202.704 101.917 202.667 101.928C202.63 101.939 202.591 101.942 202.553 101.937Z" fill="#263238"/>
<path d="M204.622 77.7029L194.941 77.2677C194.896 77.2653 194.852 77.2534 194.811 77.2325C194.77 77.2117 194.733 77.1823 194.703 77.1462C194.672 77.1101 194.649 77.0679 194.633 77.022C194.618 76.9761 194.612 76.9274 194.614 76.8788C194.622 76.7822 194.664 76.6925 194.731 76.6274C194.798 76.5623 194.886 76.5264 194.976 76.5269L204.648 76.9621C204.693 76.9645 204.737 76.9764 204.778 76.9972C204.819 77.0181 204.856 77.0474 204.886 77.0836C204.917 77.1197 204.94 77.1619 204.956 77.2078C204.971 77.2537 204.977 77.3024 204.975 77.351C204.974 77.3993 204.964 77.4468 204.945 77.4908C204.927 77.5348 204.9 77.5743 204.868 77.6071C204.835 77.6399 204.796 77.6653 204.754 77.6817C204.711 77.6982 204.667 77.7054 204.622 77.7029Z" fill="#263238"/>
<path d="M199.915 73.3875C199.825 73.3853 199.74 73.3468 199.676 73.2798C199.612 73.2128 199.574 73.1222 199.57 73.0263C199.57 71.1743 199.035 67.961 197.424 67.2572C197.379 67.2411 197.338 67.2154 197.303 67.1816C197.268 67.1478 197.24 67.1067 197.22 67.0608C197.2 67.0148 197.19 66.9651 197.189 66.9145C197.187 66.864 197.196 66.8137 197.214 66.7669C197.231 66.72 197.258 66.6776 197.291 66.6421C197.325 66.6066 197.365 66.5789 197.409 66.5607C197.453 66.5424 197.499 66.534 197.547 66.5359C197.594 66.5379 197.64 66.5501 197.682 66.5719C200.07 67.6276 200.268 72.4615 200.268 73.0541C200.268 73.1517 200.233 73.2456 200.171 73.3163C200.108 73.3869 200.023 73.429 199.932 73.4338L199.915 73.3875Z" fill="#263238"/>
<path d="M170.305 85.9721H170.236C170.147 85.952 170.069 85.895 170.019 85.8135C169.969 85.732 169.951 85.6326 169.969 85.5369C171.107 79.4529 175.813 69.85 179.96 67.0164C179.998 66.9911 180.04 66.9742 180.084 66.9665C180.128 66.9589 180.173 66.9607 180.216 66.9719C180.259 66.9831 180.3 67.0035 180.336 67.0318C180.372 67.0601 180.402 67.0957 180.425 67.1367C180.45 67.1764 180.468 67.2212 180.476 67.2683C180.484 67.3155 180.484 67.3639 180.474 67.4108C180.464 67.4576 180.446 67.5018 180.42 67.5407C180.393 67.5795 180.36 67.6122 180.322 67.6368C176.313 70.3593 171.745 79.6751 170.641 85.6665C170.627 85.7516 170.586 85.8287 170.525 85.8845C170.463 85.9403 170.386 85.9713 170.305 85.9721Z" fill="#263238"/>
<path d="M173.133 86.926C172.599 88.3984 171.409 89.2874 170.547 88.9077C169.685 88.528 169.349 87.0556 169.883 85.5462C170.418 84.0368 171.607 83.1849 172.469 83.5738C173.331 83.9627 173.676 85.4536 173.133 86.926Z" fill="white"/>
<path d="M195.89 101.27C195.89 101.955 195.493 102.502 195.071 102.483C194.648 102.465 194.321 101.891 194.347 101.196C194.372 100.502 194.743 99.9552 195.165 99.9829C195.588 100.011 195.915 100.576 195.89 101.27Z" fill="white"/>
<path d="M203.32 101.604C203.32 102.289 202.932 102.835 202.501 102.817C202.07 102.798 201.76 102.224 201.785 101.529C201.811 100.835 202.173 100.298 202.647 100.316C203.121 100.335 203.346 100.937 203.32 101.604Z" fill="white"/>
<path d="M349.498 88.7594L348.636 88.7039C348.779 86.7323 348.54 84.7503 347.932 82.8835C347.325 81.0167 346.363 79.3059 345.107 77.8597C343.852 76.4134 342.33 75.2633 340.639 74.4823C338.948 73.7012 337.124 73.3063 335.284 73.3226V72.3965C337.242 72.3787 339.183 72.7983 340.983 73.6289C342.783 74.4594 344.402 75.6828 345.739 77.2213C347.075 78.7598 348.1 80.5799 348.747 82.5661C349.394 84.5523 349.65 86.6614 349.498 88.7594Z" fill="#407BFF"/>
<path d="M349.952 92.6421L349.453 100.31L350.315 100.374L350.814 92.7069L349.952 92.6421Z" fill="#407BFF"/>
<path d="M335.283 75.6376H275.805C272.557 75.6949 269.445 77.0482 267.074 79.4342C264.703 81.8201 263.244 85.0681 262.979 88.5464L262.436 97.1492C262.312 98.8045 262.511 100.469 263.02 102.037C263.528 103.606 264.336 105.043 265.39 106.257C266.444 107.472 267.722 108.437 269.143 109.091C270.564 109.746 272.096 110.075 273.642 110.058H333.12L344.653 117.698L346.481 88.5464C346.605 86.8915 346.407 85.227 345.9 83.6588C345.392 82.0907 344.586 80.6535 343.532 79.4388C342.479 78.2242 341.201 77.2588 339.781 76.6044C338.36 75.9499 336.829 75.6206 335.283 75.6376Z" fill="#407BFF"/>
<path d="M332.267 87.9629H277.176V90.1113H332.267V87.9629Z" fill="white"/>
<path d="M331.784 95.5842H290.882V97.7326H331.784V95.5842Z" fill="white"/>
<path d="M245.808 121.661H306.596C308.177 121.643 309.743 121.979 311.196 122.647C312.649 123.316 313.956 124.302 315.034 125.544C316.112 126.786 316.937 128.255 317.457 129.859C317.976 131.462 318.179 133.165 318.052 134.857L317.5 143.654C317.227 147.209 315.734 150.527 313.312 152.966C310.889 155.404 307.709 156.789 304.389 156.85H243.593L230.818 164.675L232.697 134.857C232.968 131.302 234.46 127.982 236.884 125.543C239.307 123.104 242.488 121.72 245.808 121.661Z" fill="white"/>
<path opacity="0.15" d="M245.808 121.661H306.596C308.177 121.643 309.743 121.979 311.196 122.647C312.649 123.316 313.956 124.302 315.034 125.544C316.112 126.786 316.937 128.255 317.457 129.859C317.976 131.462 318.179 133.165 318.052 134.857L317.5 143.654C317.227 147.209 315.734 150.527 313.312 152.966C310.889 155.404 307.709 156.789 304.389 156.85H243.593L230.818 164.675L232.697 134.857C232.968 131.302 234.46 127.982 236.884 125.543C239.307 123.104 242.488 121.72 245.808 121.661Z" fill="#407BFF"/>
<path opacity="0.5" d="M303.51 134.264H247.17V136.468H303.51V134.264Z" fill="#407BFF"/>
<path opacity="0.5" d="M268.944 142.052H246.678V144.256H268.944V142.052Z" fill="#407BFF"/>
<path opacity="0.5" d="M288.623 142.052H274.4V144.256H288.623V142.052Z" fill="#407BFF"/>
</svg>
