<svg width="233" height="135" viewBox="0 0 233 135" fill="none" xmlns="http://www.w3.org/2000/svg">
<path fill-rule="evenodd" clip-rule="evenodd" d="M193.333 3.16667C193.333 2.32681 193.667 1.52136 194.261 0.927495C194.855 0.33363 195.66 0 196.5 0H204.944C205.784 0 206.59 0.33363 207.184 0.927495C207.777 1.52136 208.111 2.32681 208.111 3.16667H211.278C212.118 3.16667 212.923 3.5003 213.517 4.09416C214.111 4.68803 214.444 5.49348 214.444 6.33333V34.8333C214.444 35.6732 214.111 36.4786 213.517 37.0725C212.923 37.6664 212.118 38 211.278 38H190.167C189.327 38 188.521 37.6664 187.927 37.0725C187.334 36.4786 187 35.6732 187 34.8333V6.33333C187 5.49348 187.334 4.68803 187.927 4.09416C188.521 3.5003 189.327 3.16667 190.167 3.16667H193.333ZM196.5 2.11111C196.22 2.11111 195.952 2.22232 195.754 2.42028C195.556 2.61823 195.444 2.88672 195.444 3.16667V5.27778C195.444 5.55773 195.556 5.82621 195.754 6.02417C195.952 6.22212 196.22 6.33333 196.5 6.33333H204.944C205.224 6.33333 205.493 6.22212 205.691 6.02417C205.889 5.82621 206 5.55773 206 5.27778V3.16667C206 2.88672 205.889 2.61823 205.691 2.42028C205.493 2.22232 205.224 2.11111 204.944 2.11111H196.5ZM195.444 12.6667V15.8333H192.278V17.9444H195.444V21.1111H197.556V17.9444H200.722V15.8333H197.556V12.6667H195.444ZM193.333 24.2778C193.053 24.2778 192.785 24.389 192.587 24.5869C192.389 24.7849 192.278 25.0534 192.278 25.3333C192.278 25.6133 192.389 25.8818 192.587 26.0797C192.785 26.2777 193.053 26.3889 193.333 26.3889H208.111C208.391 26.3889 208.66 26.2777 208.858 26.0797C209.055 25.8818 209.167 25.6133 209.167 25.3333C209.167 25.0534 209.055 24.7849 208.858 24.5869C208.66 24.389 208.391 24.2778 208.111 24.2778H193.333ZM192.278 30.6111C192.278 30.3312 192.389 30.0627 192.587 29.8647C192.785 29.6668 193.053 29.5556 193.333 29.5556H208.111C208.391 29.5556 208.66 29.6668 208.858 29.8647C209.055 30.0627 209.167 30.3312 209.167 30.6111C209.167 30.8911 209.055 31.1595 208.858 31.3575C208.66 31.5555 208.391 31.6667 208.111 31.6667H193.333C193.053 31.6667 192.785 31.5555 192.587 31.3575C192.389 31.1595 192.278 30.8911 192.278 30.6111Z" fill="black"/>
<path d="M218.667 12.6667C218.667 11.8268 219 11.0214 219.594 10.4275C220.188 9.83363 220.993 9.5 221.833 9.5C222.673 9.5 223.478 9.83363 224.072 10.4275C224.666 11.0214 225 11.8268 225 12.6667V15.8333H218.667V12.6667ZM218.667 33.7778V17.9444H225V33.7778L221.833 38L218.667 33.7778Z" fill="black"/>
<path d="M71.3403 73V53.26H74.9523V61.492H85.0603V53.26H88.6723V73H85.0603V64.488H74.9523V73H71.3403ZM99.5758 73.28C97.2052 73.28 95.3478 72.6267 94.0038 71.32C92.6598 70.0133 91.9878 68.2213 91.9878 65.944C91.9878 64.4693 92.2772 63.1813 92.8558 62.08C93.4345 60.9787 94.2372 60.12 95.2638 59.504C96.3092 58.888 97.5225 58.58 98.9038 58.58C100.267 58.58 101.405 58.8693 102.32 59.448C103.235 60.0267 103.925 60.8387 104.392 61.884C104.877 62.9293 105.12 64.152 105.12 65.552V66.476H94.8158V64.628H102.628L102.152 65.02C102.152 63.7133 101.872 62.7147 101.312 62.024C100.771 61.3333 99.9772 60.988 98.9318 60.988C97.7745 60.988 96.8785 61.3987 96.2438 62.22C95.6278 63.0413 95.3198 64.1893 95.3198 65.664V66.028C95.3198 67.5587 95.6932 68.7067 96.4398 69.472C97.2052 70.2187 98.2785 70.592 99.6598 70.592C100.463 70.592 101.209 70.4893 101.9 70.284C102.609 70.06 103.281 69.7053 103.916 69.22L104.952 71.572C104.28 72.1133 103.477 72.5333 102.544 72.832C101.611 73.1307 100.621 73.28 99.5758 73.28ZM113.544 73.28C112.312 73.28 111.229 72.9907 110.296 72.412C109.362 71.8147 108.634 70.9653 108.112 69.864C107.589 68.7627 107.328 67.4467 107.328 65.916C107.328 64.3853 107.589 63.0787 108.112 61.996C108.634 60.8947 109.362 60.0547 110.296 59.476C111.229 58.8787 112.312 58.58 113.544 58.58C114.738 58.58 115.784 58.8787 116.68 59.476C117.594 60.0547 118.201 60.8387 118.5 61.828H118.192L118.5 58.86H121.86C121.804 59.4387 121.748 60.0267 121.692 60.624C121.654 61.2213 121.636 61.8093 121.636 62.388V73H118.164L118.136 70.088H118.472C118.173 71.0587 117.566 71.8333 116.652 72.412C115.737 72.9907 114.701 73.28 113.544 73.28ZM114.524 70.592C115.625 70.592 116.512 70.2093 117.184 69.444C117.856 68.66 118.192 67.484 118.192 65.916C118.192 64.348 117.856 63.1813 117.184 62.416C116.512 61.6507 115.625 61.268 114.524 61.268C113.422 61.268 112.536 61.6507 111.864 62.416C111.192 63.1813 110.856 64.348 110.856 65.916C110.856 67.484 111.182 68.66 111.836 69.444C112.508 70.2093 113.404 70.592 114.524 70.592ZM125.447 73V52.392H128.947V73H125.447ZM138.796 73.28C137.116 73.28 135.846 72.8413 134.988 71.964C134.129 71.0867 133.7 69.7707 133.7 68.016V61.492H130.984V58.86H133.7V55.248L137.2 54.352V58.86H140.98V61.492H137.2V67.792C137.2 68.7627 137.386 69.444 137.76 69.836C138.133 70.228 138.646 70.424 139.3 70.424C139.654 70.424 139.953 70.396 140.196 70.34C140.457 70.284 140.709 70.2093 140.952 70.116V72.888C140.634 73.0187 140.28 73.112 139.888 73.168C139.514 73.2427 139.15 73.28 138.796 73.28ZM143.357 73V52.392H146.857V61.688H146.465C146.894 60.68 147.557 59.9147 148.453 59.392C149.349 58.8507 150.376 58.58 151.533 58.58C153.213 58.58 154.464 59.056 155.285 60.008C156.106 60.9413 156.517 62.3693 156.517 64.292V73H153.017V64.46C153.017 63.3587 152.802 62.5653 152.373 62.08C151.962 61.576 151.3 61.324 150.385 61.324C149.321 61.324 148.462 61.66 147.809 62.332C147.174 62.9853 146.857 63.8627 146.857 64.964V73H143.357ZM174.408 73.28C172.952 73.28 171.673 72.9813 170.572 72.384C169.489 71.7867 168.649 70.9373 168.052 69.836C167.454 68.716 167.156 67.3907 167.156 65.86C167.156 64.3293 167.454 63.0227 168.052 61.94C168.668 60.8573 169.517 60.0267 170.6 59.448C171.682 58.8693 172.952 58.58 174.408 58.58C175.341 58.58 176.246 58.7293 177.124 59.028C178.02 59.308 178.748 59.7187 179.308 60.26L178.244 62.696C177.74 62.2293 177.17 61.884 176.536 61.66C175.92 61.4173 175.313 61.296 174.716 61.296C173.465 61.296 172.485 61.688 171.776 62.472C171.085 63.256 170.74 64.3947 170.74 65.888C170.74 67.3813 171.085 68.5293 171.776 69.332C172.485 70.1347 173.465 70.536 174.716 70.536C175.294 70.536 175.892 70.424 176.508 70.2C177.142 69.976 177.721 69.6307 178.244 69.164L179.308 71.572C178.729 72.1133 177.992 72.5333 177.096 72.832C176.218 73.1307 175.322 73.28 174.408 73.28ZM182.021 73V52.392H185.521V73H182.021ZM189.322 73V58.86H192.822V73H189.322ZM189.126 56.2V52.784H193.018V56.2H189.126ZM196.623 73V62.388C196.623 61.8093 196.604 61.2213 196.567 60.624C196.529 60.0267 196.473 59.4387 196.399 58.86H199.787L200.067 61.66H199.731C200.179 60.6707 200.841 59.9147 201.719 59.392C202.596 58.8507 203.613 58.58 204.771 58.58C206.432 58.58 207.683 59.0467 208.523 59.98C209.363 60.9133 209.783 62.3693 209.783 64.348V73H206.283V64.516C206.283 63.3773 206.059 62.5653 205.611 62.08C205.181 61.576 204.528 61.324 203.651 61.324C202.568 61.324 201.709 61.66 201.075 62.332C200.44 63.004 200.123 63.9 200.123 65.02V73H196.623ZM213.494 73V58.86H216.994V73H213.494ZM213.298 56.2V52.784H217.19V56.2H213.298ZM227.291 73.28C225.835 73.28 224.556 72.9813 223.455 72.384C222.372 71.7867 221.532 70.9373 220.935 69.836C220.337 68.716 220.039 67.3907 220.039 65.86C220.039 64.3293 220.337 63.0227 220.935 61.94C221.551 60.8573 222.4 60.0267 223.483 59.448C224.565 58.8693 225.835 58.58 227.291 58.58C228.224 58.58 229.129 58.7293 230.007 59.028C230.903 59.308 231.631 59.7187 232.191 60.26L231.127 62.696C230.623 62.2293 230.053 61.884 229.419 61.66C228.803 61.4173 228.196 61.296 227.599 61.296C226.348 61.296 225.368 61.688 224.659 62.472C223.968 63.256 223.623 64.3947 223.623 65.888C223.623 67.3813 223.968 68.5293 224.659 69.332C225.368 70.1347 226.348 70.536 227.599 70.536C228.177 70.536 228.775 70.424 229.391 70.2C230.025 69.976 230.604 69.6307 231.127 69.164L232.191 71.572C231.612 72.1133 230.875 72.5333 229.979 72.832C229.101 73.1307 228.205 73.28 227.291 73.28Z" fill="black"/>
<path d="M47.6736 111V99.72H52.2656C53.4496 99.72 54.3616 100.008 55.0016 100.584C55.6416 101.149 55.9616 101.939 55.9616 102.952C55.9616 103.944 55.6416 104.733 55.0016 105.32C54.3616 105.896 53.4496 106.184 52.2656 106.184H49.0016V111H47.6736ZM49.0016 105.08H52.1376C52.959 105.08 53.5776 104.893 53.9936 104.52C54.4203 104.147 54.6336 103.624 54.6336 102.952C54.6336 102.269 54.4203 101.741 53.9936 101.368C53.5776 100.995 52.959 100.808 52.1376 100.808H49.0016V105.08ZM57.7633 111V104.904C57.7633 104.584 57.7526 104.259 57.7313 103.928C57.7206 103.597 57.6993 103.277 57.6673 102.968H58.9153L59.0753 104.92L58.8513 104.936C58.9579 104.456 59.1446 104.061 59.4113 103.752C59.6779 103.443 59.9926 103.213 60.3553 103.064C60.7179 102.904 61.0966 102.824 61.4913 102.824C61.6513 102.824 61.7899 102.829 61.9073 102.84C62.0353 102.851 62.1526 102.877 62.2593 102.92L62.2433 104.072C62.0833 104.019 61.9339 103.987 61.7953 103.976C61.6673 103.955 61.5179 103.944 61.3473 103.944C60.8779 103.944 60.4673 104.056 60.1153 104.28C59.7739 104.504 59.5126 104.792 59.3313 105.144C59.1606 105.496 59.0753 105.869 59.0753 106.264V111H57.7633ZM66.81 111.144C66.042 111.144 65.37 110.979 64.794 110.648C64.2287 110.307 63.7913 109.827 63.482 109.208C63.1727 108.579 63.018 107.837 63.018 106.984C63.018 106.12 63.1727 105.379 63.482 104.76C63.7913 104.141 64.2287 103.667 64.794 103.336C65.37 102.995 66.042 102.824 66.81 102.824C67.5887 102.824 68.2607 102.995 68.826 103.336C69.402 103.667 69.8447 104.141 70.154 104.76C70.474 105.379 70.634 106.12 70.634 106.984C70.634 107.837 70.474 108.579 70.154 109.208C69.8447 109.827 69.402 110.307 68.826 110.648C68.2607 110.979 67.5887 111.144 66.81 111.144ZM66.81 110.088C67.578 110.088 68.186 109.827 68.634 109.304C69.082 108.771 69.306 107.997 69.306 106.984C69.306 105.96 69.0767 105.187 68.618 104.664C68.17 104.131 67.5673 103.864 66.81 103.864C66.0527 103.864 65.45 104.131 65.002 104.664C64.554 105.187 64.33 105.96 64.33 106.984C64.33 107.997 64.554 108.771 65.002 109.304C65.45 109.827 66.0527 110.088 66.81 110.088ZM72.9925 111V103.976H71.4245V102.968H73.3445L72.9925 103.304V101.96C72.9925 101.053 73.2218 100.36 73.6805 99.88C74.1392 99.4 74.7952 99.16 75.6485 99.16C75.8618 99.16 76.0805 99.1813 76.3045 99.224C76.5392 99.256 76.7312 99.304 76.8805 99.368V100.44C76.7525 100.387 76.5925 100.344 76.4005 100.312C76.2192 100.269 76.0325 100.248 75.8405 100.248C75.5098 100.248 75.2272 100.317 74.9925 100.456C74.7578 100.584 74.5818 100.781 74.4645 101.048C74.3472 101.315 74.2885 101.656 74.2885 102.072V103.24L74.0805 102.968H76.5285V103.976H74.2885V111H72.9925ZM81.332 111.144C80.0733 111.144 79.0813 110.781 78.356 110.056C77.6307 109.32 77.268 108.301 77.268 107C77.268 106.157 77.428 105.427 77.748 104.808C78.068 104.179 78.516 103.693 79.092 103.352C79.668 103 80.3293 102.824 81.076 102.824C81.812 102.824 82.4307 102.979 82.932 103.288C83.4333 103.597 83.8173 104.04 84.084 104.616C84.3507 105.181 84.484 105.853 84.484 106.632V107.112H78.26V106.296H83.636L83.364 106.504C83.364 105.651 83.172 104.984 82.788 104.504C82.404 104.024 81.8333 103.784 81.076 103.784C80.276 103.784 79.652 104.067 79.204 104.632C78.756 105.187 78.532 105.939 78.532 106.888V107.032C78.532 108.035 78.7773 108.797 79.268 109.32C79.7693 109.832 80.468 110.088 81.364 110.088C81.844 110.088 82.292 110.019 82.708 109.88C83.1347 109.731 83.54 109.491 83.924 109.16L84.372 110.072C84.02 110.413 83.572 110.68 83.028 110.872C82.4947 111.053 81.9293 111.144 81.332 111.144ZM89.1391 111.144C88.4991 111.144 87.9018 111.059 87.3471 110.888C86.7925 110.707 86.3338 110.456 85.9711 110.136L86.4191 109.224C86.8138 109.533 87.2405 109.763 87.6991 109.912C88.1685 110.061 88.6538 110.136 89.1551 110.136C89.7951 110.136 90.2751 110.024 90.5951 109.8C90.9258 109.565 91.0911 109.245 91.0911 108.84C91.0911 108.531 90.9845 108.285 90.7711 108.104C90.5685 107.912 90.2325 107.763 89.7631 107.656L88.2751 107.352C87.5925 107.203 87.0805 106.952 86.7391 106.6C86.3978 106.237 86.2271 105.779 86.2271 105.224C86.2271 104.755 86.3498 104.344 86.5951 103.992C86.8405 103.629 87.1978 103.347 87.6671 103.144C88.1365 102.931 88.6858 102.824 89.3151 102.824C89.9018 102.824 90.4405 102.915 90.9311 103.096C91.4325 103.267 91.8485 103.517 92.1791 103.848L91.7151 104.744C91.3951 104.435 91.0271 104.205 90.6111 104.056C90.2058 103.896 89.7845 103.816 89.3471 103.816C88.7178 103.816 88.2431 103.944 87.9231 104.2C87.6138 104.445 87.4591 104.771 87.4591 105.176C87.4591 105.485 87.5551 105.741 87.7471 105.944C87.9498 106.136 88.2591 106.28 88.6751 106.376L90.1631 106.68C90.8885 106.84 91.4271 107.091 91.7791 107.432C92.1418 107.763 92.3231 108.211 92.3231 108.776C92.3231 109.256 92.1898 109.677 91.9231 110.04C91.6565 110.392 91.2831 110.664 90.8031 110.856C90.3338 111.048 89.7791 111.144 89.1391 111.144ZM97.0766 111.144C96.4366 111.144 95.8393 111.059 95.2846 110.888C94.73 110.707 94.2713 110.456 93.9086 110.136L94.3566 109.224C94.7513 109.533 95.178 109.763 95.6366 109.912C96.106 110.061 96.5913 110.136 97.0926 110.136C97.7326 110.136 98.2126 110.024 98.5326 109.8C98.8633 109.565 99.0286 109.245 99.0286 108.84C99.0286 108.531 98.922 108.285 98.7086 108.104C98.506 107.912 98.17 107.763 97.7006 107.656L96.2126 107.352C95.53 107.203 95.018 106.952 94.6766 106.6C94.3353 106.237 94.1646 105.779 94.1646 105.224C94.1646 104.755 94.2873 104.344 94.5326 103.992C94.778 103.629 95.1353 103.347 95.6046 103.144C96.074 102.931 96.6233 102.824 97.2526 102.824C97.8393 102.824 98.378 102.915 98.8686 103.096C99.37 103.267 99.786 103.517 100.117 103.848L99.6526 104.744C99.3326 104.435 98.9646 104.205 98.5486 104.056C98.1433 103.896 97.722 103.816 97.2846 103.816C96.6553 103.816 96.1806 103.944 95.8606 104.2C95.5513 104.445 95.3966 104.771 95.3966 105.176C95.3966 105.485 95.4926 105.741 95.6846 105.944C95.8873 106.136 96.1966 106.28 96.6126 106.376L98.1006 106.68C98.826 106.84 99.3646 107.091 99.7166 107.432C100.079 107.763 100.261 108.211 100.261 108.776C100.261 109.256 100.127 109.677 99.8606 110.04C99.594 110.392 99.2206 110.664 98.7406 110.856C98.2713 111.048 97.7166 111.144 97.0766 111.144ZM102.342 111V102.968H103.638V111H102.342ZM102.182 101.144V99.688H103.782V101.144H102.182ZM109.451 111.144C108.683 111.144 108.011 110.979 107.435 110.648C106.869 110.307 106.432 109.827 106.123 109.208C105.813 108.579 105.659 107.837 105.659 106.984C105.659 106.12 105.813 105.379 106.123 104.76C106.432 104.141 106.869 103.667 107.435 103.336C108.011 102.995 108.683 102.824 109.451 102.824C110.229 102.824 110.901 102.995 111.467 103.336C112.043 103.667 112.485 104.141 112.795 104.76C113.115 105.379 113.275 106.12 113.275 106.984C113.275 107.837 113.115 108.579 112.795 109.208C112.485 109.827 112.043 110.307 111.467 110.648C110.901 110.979 110.229 111.144 109.451 111.144ZM109.451 110.088C110.219 110.088 110.827 109.827 111.275 109.304C111.723 108.771 111.947 107.997 111.947 106.984C111.947 105.96 111.717 105.187 111.259 104.664C110.811 104.131 110.208 103.864 109.451 103.864C108.693 103.864 108.091 104.131 107.643 104.664C107.195 105.187 106.971 105.96 106.971 106.984C106.971 107.997 107.195 108.771 107.643 109.304C108.091 109.827 108.693 110.088 109.451 110.088ZM115.295 111V104.824C115.295 104.525 115.279 104.221 115.247 103.912C115.226 103.592 115.199 103.277 115.167 102.968H116.415L116.575 104.728H116.383C116.618 104.109 116.991 103.64 117.503 103.32C118.026 102.989 118.629 102.824 119.311 102.824C120.261 102.824 120.975 103.08 121.455 103.592C121.946 104.093 122.191 104.888 122.191 105.976V111H120.895V106.056C120.895 105.299 120.741 104.749 120.431 104.408C120.133 104.056 119.663 103.88 119.023 103.88C118.277 103.88 117.685 104.109 117.247 104.568C116.81 105.027 116.591 105.64 116.591 106.408V111H115.295ZM127.726 111.144C127.012 111.144 126.388 110.979 125.854 110.648C125.321 110.307 124.905 109.827 124.606 109.208C124.318 108.589 124.174 107.848 124.174 106.984C124.174 106.109 124.318 105.363 124.606 104.744C124.905 104.125 125.321 103.651 125.854 103.32C126.388 102.989 127.012 102.824 127.726 102.824C128.452 102.824 129.076 103.011 129.598 103.384C130.132 103.747 130.484 104.243 130.654 104.872H130.462L130.638 102.968H131.886C131.854 103.277 131.822 103.592 131.79 103.912C131.769 104.221 131.758 104.525 131.758 104.824V111H130.462V109.112H130.638C130.468 109.741 130.116 110.237 129.582 110.6C129.049 110.963 128.43 111.144 127.726 111.144ZM127.982 110.088C128.75 110.088 129.358 109.827 129.806 109.304C130.254 108.771 130.478 107.997 130.478 106.984C130.478 105.96 130.254 105.187 129.806 104.664C129.358 104.131 128.75 103.864 127.982 103.864C127.225 103.864 126.617 104.131 126.158 104.664C125.71 105.187 125.486 105.96 125.486 106.984C125.486 107.997 125.71 108.771 126.158 109.304C126.617 109.827 127.225 110.088 127.982 110.088ZM134.264 111V99.224H135.56V111H134.264ZM141.272 111L146.248 99.72H147.4L152.456 111H151.08L149.672 107.784L150.264 108.12H143.368L144.008 107.784L142.632 111H141.272ZM146.808 101.24L144.216 107.32L143.832 107.032H149.784L149.496 107.32L146.84 101.24H146.808ZM154.014 114.456V104.824C154.014 104.525 153.998 104.221 153.966 103.912C153.945 103.592 153.918 103.277 153.886 102.968H155.134L155.31 104.872H155.118C155.289 104.243 155.635 103.747 156.158 103.384C156.681 103.011 157.305 102.824 158.03 102.824C158.755 102.824 159.379 102.989 159.902 103.32C160.435 103.651 160.851 104.125 161.15 104.744C161.449 105.363 161.598 106.109 161.598 106.984C161.598 107.848 161.449 108.589 161.15 109.208C160.862 109.827 160.451 110.307 159.918 110.648C159.385 110.979 158.755 111.144 158.03 111.144C157.315 111.144 156.697 110.963 156.174 110.6C155.651 110.237 155.305 109.741 155.134 109.112H155.31V114.456H154.014ZM157.774 110.088C158.542 110.088 159.15 109.827 159.598 109.304C160.057 108.771 160.286 107.997 160.286 106.984C160.286 105.96 160.057 105.187 159.598 104.664C159.15 104.131 158.542 103.864 157.774 103.864C157.017 103.864 156.409 104.131 155.95 104.664C155.502 105.187 155.278 105.96 155.278 106.984C155.278 107.997 155.502 108.771 155.95 109.304C156.409 109.827 157.017 110.088 157.774 110.088ZM163.608 114.456V104.824C163.608 104.525 163.592 104.221 163.56 103.912C163.538 103.592 163.512 103.277 163.48 102.968H164.728L164.904 104.872H164.712C164.882 104.243 165.229 103.747 165.752 103.384C166.274 103.011 166.898 102.824 167.624 102.824C168.349 102.824 168.973 102.989 169.496 103.32C170.029 103.651 170.445 104.125 170.744 104.744C171.042 105.363 171.192 106.109 171.192 106.984C171.192 107.848 171.042 108.589 170.744 109.208C170.456 109.827 170.045 110.307 169.512 110.648C168.978 110.979 168.349 111.144 167.624 111.144C166.909 111.144 166.29 110.963 165.768 110.6C165.245 110.237 164.898 109.741 164.728 109.112H164.904V114.456H163.608ZM167.368 110.088C168.136 110.088 168.744 109.827 169.192 109.304C169.65 108.771 169.88 107.997 169.88 106.984C169.88 105.96 169.65 105.187 169.192 104.664C168.744 104.131 168.136 103.864 167.368 103.864C166.61 103.864 166.002 104.131 165.544 104.664C165.096 105.187 164.872 105.96 164.872 106.984C164.872 107.997 165.096 108.771 165.544 109.304C166.002 109.827 166.61 110.088 167.368 110.088ZM177.789 111V103.976H176.221V102.968H178.141L177.789 103.304V101.96C177.789 101.053 178.019 100.36 178.477 99.88C178.936 99.4 179.592 99.16 180.445 99.16C180.659 99.16 180.877 99.1813 181.101 99.224C181.336 99.256 181.528 99.304 181.677 99.368V100.44C181.549 100.387 181.389 100.344 181.197 100.312C181.016 100.269 180.829 100.248 180.637 100.248C180.307 100.248 180.024 100.317 179.789 100.456C179.555 100.584 179.379 100.781 179.261 101.048C179.144 101.315 179.085 101.656 179.085 102.072V103.24L178.877 102.968H181.325V103.976H179.085V111H177.789ZM185.857 111.144C185.089 111.144 184.417 110.979 183.841 110.648C183.276 110.307 182.838 109.827 182.529 109.208C182.22 108.579 182.065 107.837 182.065 106.984C182.065 106.12 182.22 105.379 182.529 104.76C182.838 104.141 183.276 103.667 183.841 103.336C184.417 102.995 185.089 102.824 185.857 102.824C186.636 102.824 187.308 102.995 187.873 103.336C188.449 103.667 188.892 104.141 189.201 104.76C189.521 105.379 189.681 106.12 189.681 106.984C189.681 107.837 189.521 108.579 189.201 109.208C188.892 109.827 188.449 110.307 187.873 110.648C187.308 110.979 186.636 111.144 185.857 111.144ZM185.857 110.088C186.625 110.088 187.233 109.827 187.681 109.304C188.129 108.771 188.353 107.997 188.353 106.984C188.353 105.96 188.124 105.187 187.665 104.664C187.217 104.131 186.614 103.864 185.857 103.864C185.1 103.864 184.497 104.131 184.049 104.664C183.601 105.187 183.377 105.96 183.377 106.984C183.377 107.997 183.601 108.771 184.049 109.304C184.497 109.827 185.1 110.088 185.857 110.088ZM191.67 111V104.904C191.67 104.584 191.659 104.259 191.638 103.928C191.627 103.597 191.606 103.277 191.574 102.968H192.822L192.982 104.92L192.758 104.936C192.864 104.456 193.051 104.061 193.318 103.752C193.584 103.443 193.899 103.213 194.262 103.064C194.624 102.904 195.003 102.824 195.398 102.824C195.558 102.824 195.696 102.829 195.814 102.84C195.942 102.851 196.059 102.877 196.166 102.92L196.15 104.072C195.99 104.019 195.84 103.987 195.702 103.976C195.574 103.955 195.424 103.944 195.254 103.944C194.784 103.944 194.374 104.056 194.022 104.28C193.68 104.504 193.419 104.792 193.238 105.144C193.067 105.496 192.982 105.869 192.982 106.264V111H191.67ZM201.366 114.632L201.062 113.56C201.563 113.443 201.979 113.304 202.31 113.144C202.651 112.995 202.934 112.792 203.158 112.536C203.382 112.28 203.574 111.96 203.734 111.576L204.15 110.632L204.118 111.176L200.614 102.968H202.022L204.918 110.024H204.502L207.366 102.968H208.726L205.014 111.672C204.801 112.184 204.566 112.611 204.31 112.952C204.054 113.304 203.777 113.587 203.478 113.8C203.19 114.024 202.87 114.2 202.518 114.328C202.166 114.456 201.782 114.557 201.366 114.632ZM213.373 111.144C212.605 111.144 211.933 110.979 211.357 110.648C210.791 110.307 210.354 109.827 210.045 109.208C209.735 108.579 209.581 107.837 209.581 106.984C209.581 106.12 209.735 105.379 210.045 104.76C210.354 104.141 210.791 103.667 211.357 103.336C211.933 102.995 212.605 102.824 213.373 102.824C214.151 102.824 214.823 102.995 215.389 103.336C215.965 103.667 216.407 104.141 216.717 104.76C217.037 105.379 217.197 106.12 217.197 106.984C217.197 107.837 217.037 108.579 216.717 109.208C216.407 109.827 215.965 110.307 215.389 110.648C214.823 110.979 214.151 111.144 213.373 111.144ZM213.373 110.088C214.141 110.088 214.749 109.827 215.197 109.304C215.645 108.771 215.869 107.997 215.869 106.984C215.869 105.96 215.639 105.187 215.181 104.664C214.733 104.131 214.13 103.864 213.373 103.864C212.615 103.864 212.013 104.131 211.565 104.664C211.117 105.187 210.893 105.96 210.893 106.984C210.893 107.997 211.117 108.771 211.565 109.304C212.013 109.827 212.615 110.088 213.373 110.088ZM222.049 111.144C221.1 111.144 220.38 110.883 219.889 110.36C219.409 109.837 219.169 109.037 219.169 107.96V102.968H220.465V107.928C220.465 108.664 220.614 109.208 220.913 109.56C221.212 109.901 221.676 110.072 222.305 110.072C223.009 110.072 223.574 109.843 224.001 109.384C224.428 108.925 224.641 108.312 224.641 107.544V102.968H225.937V111H224.673V109.192H224.881C224.657 109.811 224.294 110.291 223.793 110.632C223.302 110.973 222.721 111.144 222.049 111.144ZM228.42 111V104.904C228.42 104.584 228.409 104.259 228.388 103.928C228.377 103.597 228.356 103.277 228.324 102.968H229.572L229.732 104.92L229.508 104.936C229.614 104.456 229.801 104.061 230.068 103.752C230.334 103.443 230.649 103.213 231.012 103.064C231.374 102.904 231.753 102.824 232.148 102.824C232.308 102.824 232.446 102.829 232.564 102.84C232.692 102.851 232.809 102.877 232.916 102.92L232.9 104.072C232.74 104.019 232.59 103.987 232.452 103.976C232.324 103.955 232.174 103.944 232.004 103.944C231.534 103.944 231.124 104.056 230.772 104.28C230.43 104.504 230.169 104.792 229.988 105.144C229.817 105.496 229.732 105.869 229.732 106.264V111H228.42ZM144.252 131V119.72H145.58V124.712H152.38V119.72H153.692V131H152.38V125.848H145.58V131H144.252ZM159.926 131.144C158.667 131.144 157.675 130.781 156.95 130.056C156.224 129.32 155.862 128.301 155.862 127C155.862 126.157 156.022 125.427 156.342 124.808C156.662 124.179 157.11 123.693 157.686 123.352C158.262 123 158.923 122.824 159.67 122.824C160.406 122.824 161.024 122.979 161.526 123.288C162.027 123.597 162.411 124.04 162.678 124.616C162.944 125.181 163.078 125.853 163.078 126.632V127.112H156.854V126.296H162.23L161.958 126.504C161.958 125.651 161.766 124.984 161.382 124.504C160.998 124.024 160.427 123.784 159.67 123.784C158.87 123.784 158.246 124.067 157.798 124.632C157.35 125.187 157.126 125.939 157.126 126.888V127.032C157.126 128.035 157.371 128.797 157.862 129.32C158.363 129.832 159.062 130.088 159.958 130.088C160.438 130.088 160.886 130.019 161.302 129.88C161.728 129.731 162.134 129.491 162.518 129.16L162.966 130.072C162.614 130.413 162.166 130.68 161.622 130.872C161.088 131.053 160.523 131.144 159.926 131.144ZM168.117 131.144C167.402 131.144 166.778 130.979 166.245 130.648C165.712 130.307 165.296 129.827 164.997 129.208C164.709 128.589 164.565 127.848 164.565 126.984C164.565 126.109 164.709 125.363 164.997 124.744C165.296 124.125 165.712 123.651 166.245 123.32C166.778 122.989 167.402 122.824 168.117 122.824C168.842 122.824 169.466 123.011 169.989 123.384C170.522 123.747 170.874 124.243 171.045 124.872H170.853L171.029 122.968H172.277C172.245 123.277 172.213 123.592 172.181 123.912C172.16 124.221 172.149 124.525 172.149 124.824V131H170.853V129.112H171.029C170.858 129.741 170.506 130.237 169.973 130.6C169.44 130.963 168.821 131.144 168.117 131.144ZM168.373 130.088C169.141 130.088 169.749 129.827 170.197 129.304C170.645 128.771 170.869 127.997 170.869 126.984C170.869 125.96 170.645 125.187 170.197 124.664C169.749 124.131 169.141 123.864 168.373 123.864C167.616 123.864 167.008 124.131 166.549 124.664C166.101 125.187 165.877 125.96 165.877 126.984C165.877 127.997 166.101 128.771 166.549 129.304C167.008 129.827 167.616 130.088 168.373 130.088ZM174.655 131V119.224H175.951V131H174.655ZM181.315 131.144C180.526 131.144 179.923 130.92 179.507 130.472C179.091 130.013 178.883 129.325 178.883 128.408V123.976H177.315V122.968H178.883V120.776L180.179 120.408V122.968H182.483V123.976H180.179V128.264C180.179 128.904 180.286 129.363 180.499 129.64C180.723 129.907 181.054 130.04 181.491 130.04C181.694 130.04 181.875 130.024 182.035 129.992C182.195 129.949 182.339 129.901 182.467 129.848V130.936C182.318 131 182.136 131.048 181.923 131.08C181.72 131.123 181.518 131.144 181.315 131.144ZM184.061 131V119.224H185.357V124.744H185.149C185.373 124.115 185.746 123.64 186.269 123.32C186.802 122.989 187.416 122.824 188.109 122.824C189.069 122.824 189.784 123.085 190.253 123.608C190.722 124.12 190.957 124.899 190.957 125.944V131H189.661V126.024C189.661 125.277 189.512 124.733 189.213 124.392C188.925 124.051 188.456 123.88 187.805 123.88C187.058 123.88 186.461 124.109 186.013 124.568C185.576 125.027 185.357 125.629 185.357 126.376V131H184.061ZM200.984 131.144C200.194 131.144 199.506 130.973 198.92 130.632C198.344 130.291 197.896 129.805 197.576 129.176C197.266 128.547 197.112 127.8 197.112 126.936C197.112 126.061 197.272 125.32 197.592 124.712C197.912 124.093 198.36 123.624 198.936 123.304C199.522 122.984 200.205 122.824 200.984 122.824C201.496 122.824 201.992 122.915 202.472 123.096C202.962 123.277 203.368 123.533 203.688 123.864L203.224 124.792C202.904 124.483 202.552 124.253 202.168 124.104C201.794 123.955 201.426 123.88 201.064 123.88C200.232 123.88 199.586 124.141 199.128 124.664C198.669 125.187 198.44 125.949 198.44 126.952C198.44 127.944 198.669 128.712 199.128 129.256C199.586 129.8 200.232 130.072 201.064 130.072C201.416 130.072 201.778 130.003 202.152 129.864C202.536 129.725 202.893 129.496 203.224 129.176L203.688 130.088C203.357 130.429 202.946 130.691 202.456 130.872C201.965 131.053 201.474 131.144 200.984 131.144ZM205.53 131V119.224H206.826V131H205.53ZM209.342 131V122.968H210.638V131H209.342ZM209.182 121.144V119.688H210.782V121.144H209.182ZM213.155 131V124.824C213.155 124.525 213.139 124.221 213.107 123.912C213.085 123.592 213.059 123.277 213.027 122.968H214.275L214.435 124.728H214.243C214.477 124.109 214.851 123.64 215.363 123.32C215.885 122.989 216.488 122.824 217.171 122.824C218.12 122.824 218.835 123.08 219.315 123.592C219.805 124.093 220.051 124.888 220.051 125.976V131H218.755V126.056C218.755 125.299 218.6 124.749 218.291 124.408C217.992 124.056 217.523 123.88 216.883 123.88C216.136 123.88 215.544 124.109 215.107 124.568C214.669 125.027 214.451 125.64 214.451 126.408V131H213.155ZM222.53 131V122.968H223.826V131H222.53ZM222.37 121.144V119.688H223.97V121.144H222.37ZM229.718 131.144C228.929 131.144 228.241 130.973 227.654 130.632C227.078 130.291 226.63 129.805 226.31 129.176C226.001 128.547 225.846 127.8 225.846 126.936C225.846 126.061 226.006 125.32 226.326 124.712C226.646 124.093 227.094 123.624 227.67 123.304C228.257 122.984 228.939 122.824 229.718 122.824C230.23 122.824 230.726 122.915 231.206 123.096C231.697 123.277 232.102 123.533 232.422 123.864L231.958 124.792C231.638 124.483 231.286 124.253 230.902 124.104C230.529 123.955 230.161 123.88 229.798 123.88C228.966 123.88 228.321 124.141 227.862 124.664C227.403 125.187 227.174 125.949 227.174 126.952C227.174 127.944 227.403 128.712 227.862 129.256C228.321 129.8 228.966 130.072 229.798 130.072C230.15 130.072 230.513 130.003 230.886 129.864C231.27 129.725 231.627 129.496 231.958 129.176L232.422 130.088C232.091 130.429 231.681 130.691 231.19 130.872C230.699 131.053 230.209 131.144 229.718 131.144Z" fill="#404040"/>
<line x1="4.37114e-08" y1="87.5" x2="233" y2="87.5" stroke="black"/>
</svg>
