<svg width="233" height="137" viewBox="0 0 233 137" fill="none" xmlns="http://www.w3.org/2000/svg">
<path fill-rule="evenodd" clip-rule="evenodd" d="M6.33333 3.16667C6.33333 2.32681 6.66696 1.52136 7.26083 0.927495C7.85469 0.33363 8.66015 0 9.5 0H17.9444C18.7843 0 19.5898 0.33363 20.1836 0.927495C20.7775 1.52136 21.1111 2.32681 21.1111 3.16667H24.2778C25.1176 3.16667 25.9231 3.5003 26.517 4.09416C27.1108 4.68803 27.4444 5.49348 27.4444 6.33333V34.8333C27.4444 35.6732 27.1108 36.4786 26.517 37.0725C25.9231 37.6664 25.1176 38 24.2778 38H3.16667C2.32681 38 1.52136 37.6664 0.927495 37.0725C0.33363 36.4786 0 35.6732 0 34.8333V6.33333C0 5.49348 0.33363 4.68803 0.927495 4.09416C1.52136 3.5003 2.32681 3.16667 3.16667 3.16667H6.33333ZM9.5 2.11111C9.22005 2.11111 8.95156 2.22232 8.75361 2.42028C8.55565 2.61823 8.44444 2.88672 8.44444 3.16667V5.27778C8.44444 5.55773 8.55565 5.82621 8.75361 6.02417C8.95156 6.22212 9.22005 6.33333 9.5 6.33333H17.9444C18.2244 6.33333 18.4929 6.22212 18.6908 6.02417C18.8888 5.82621 19 5.55773 19 5.27778V3.16667C19 2.88672 18.8888 2.61823 18.6908 2.42028C18.4929 2.22232 18.2244 2.11111 17.9444 2.11111H9.5ZM8.44444 12.6667V15.8333H5.27778V17.9444H8.44444V21.1111H10.5556V17.9444H13.7222V15.8333H10.5556V12.6667H8.44444ZM6.33333 24.2778C6.05338 24.2778 5.7849 24.389 5.58694 24.5869C5.38899 24.7849 5.27778 25.0534 5.27778 25.3333C5.27778 25.6133 5.38899 25.8818 5.58694 26.0797C5.7849 26.2777 6.05338 26.3889 6.33333 26.3889H21.1111C21.3911 26.3889 21.6595 26.2777 21.8575 26.0797C22.0555 25.8818 22.1667 25.6133 22.1667 25.3333C22.1667 25.0534 22.0555 24.7849 21.8575 24.5869C21.6595 24.389 21.3911 24.2778 21.1111 24.2778H6.33333ZM5.27778 30.6111C5.27778 30.3312 5.38899 30.0627 5.58694 29.8647C5.7849 29.6668 6.05338 29.5556 6.33333 29.5556H21.1111C21.3911 29.5556 21.6595 29.6668 21.8575 29.8647C22.0555 30.0627 22.1667 30.3312 22.1667 30.6111C22.1667 30.8911 22.0555 31.1595 21.8575 31.3575C21.6595 31.5555 21.3911 31.6667 21.1111 31.6667H6.33333C6.05338 31.6667 5.7849 31.5555 5.58694 31.3575C5.38899 31.1595 5.27778 30.8911 5.27778 30.6111Z" fill="black"/>
<path d="M31.6665 12.6667C31.6665 11.8268 32.0001 11.0214 32.594 10.4275C33.1879 9.83363 33.9933 9.5 34.8332 9.5C35.673 9.5 36.4785 9.83363 37.0723 10.4275C37.6662 11.0214 37.9998 11.8268 37.9998 12.6667V15.8333H31.6665V12.6667ZM31.6665 33.7778V17.9444H37.9998V33.7778L34.8332 38L31.6665 33.7778Z" fill="black"/>
<path d="M2.184 75V55.26H5.796V63.492H15.904V55.26H19.516V75H15.904V66.488H5.796V75H2.184ZM30.4196 75.28C28.0489 75.28 26.1916 74.6267 24.8476 73.32C23.5036 72.0133 22.8316 70.2213 22.8316 67.944C22.8316 66.4693 23.1209 65.1813 23.6996 64.08C24.2783 62.9787 25.0809 62.12 26.1076 61.504C27.1529 60.888 28.3663 60.58 29.7476 60.58C31.1103 60.58 32.2489 60.8693 33.1636 61.448C34.0783 62.0267 34.7689 62.8387 35.2356 63.884C35.7209 64.9293 35.9636 66.152 35.9636 67.552V68.476H25.6596V66.628H33.4716L32.9956 67.02C32.9956 65.7133 32.7156 64.7147 32.1556 64.024C31.6143 63.3333 30.8209 62.988 29.7756 62.988C28.6183 62.988 27.7223 63.3987 27.0876 64.22C26.4716 65.0413 26.1636 66.1893 26.1636 67.664V68.028C26.1636 69.5587 26.5369 70.7067 27.2836 71.472C28.0489 72.2187 29.1223 72.592 30.5036 72.592C31.3063 72.592 32.0529 72.4893 32.7436 72.284C33.4529 72.06 34.1249 71.7053 34.7596 71.22L35.7956 73.572C35.1236 74.1133 34.3209 74.5333 33.3876 74.832C32.4543 75.1307 31.4649 75.28 30.4196 75.28ZM44.3874 75.28C43.1554 75.28 42.0728 74.9907 41.1394 74.412C40.2061 73.8147 39.4781 72.9653 38.9554 71.864C38.4328 70.7627 38.1714 69.4467 38.1714 67.916C38.1714 66.3853 38.4328 65.0787 38.9554 63.996C39.4781 62.8947 40.2061 62.0547 41.1394 61.476C42.0728 60.8787 43.1554 60.58 44.3874 60.58C45.5821 60.58 46.6274 60.8787 47.5234 61.476C48.4381 62.0547 49.0448 62.8387 49.3434 63.828H49.0354L49.3434 60.86H52.7034C52.6474 61.4387 52.5914 62.0267 52.5354 62.624C52.4981 63.2213 52.4794 63.8093 52.4794 64.388V75H49.0074L48.9794 72.088H49.3154C49.0168 73.0587 48.4101 73.8333 47.4954 74.412C46.5808 74.9907 45.5448 75.28 44.3874 75.28ZM45.3674 72.592C46.4688 72.592 47.3554 72.2093 48.0274 71.444C48.6994 70.66 49.0354 69.484 49.0354 67.916C49.0354 66.348 48.6994 65.1813 48.0274 64.416C47.3554 63.6507 46.4688 63.268 45.3674 63.268C44.2661 63.268 43.3794 63.6507 42.7074 64.416C42.0354 65.1813 41.6994 66.348 41.6994 67.916C41.6994 69.484 42.0261 70.66 42.6794 71.444C43.3514 72.2093 44.2474 72.592 45.3674 72.592ZM56.2907 75V54.392H59.7907V75H56.2907ZM69.6395 75.28C67.9595 75.28 66.6902 74.8413 65.8315 73.964C64.9728 73.0867 64.5435 71.7707 64.5435 70.016V63.492H61.8275V60.86H64.5435V57.248L68.0435 56.352V60.86H71.8235V63.492H68.0435V69.792C68.0435 70.7627 68.2302 71.444 68.6035 71.836C68.9768 72.228 69.4902 72.424 70.1435 72.424C70.4982 72.424 70.7968 72.396 71.0395 72.34C71.3008 72.284 71.5528 72.2093 71.7955 72.116V74.888C71.4782 75.0187 71.1235 75.112 70.7315 75.168C70.3582 75.2427 69.9942 75.28 69.6395 75.28ZM74.2009 75V54.392H77.7009V63.688H77.3089C77.7382 62.68 78.4009 61.9147 79.2969 61.392C80.1929 60.8507 81.2195 60.58 82.3769 60.58C84.0569 60.58 85.3075 61.056 86.1289 62.008C86.9502 62.9413 87.3609 64.3693 87.3609 66.292V75H83.8609V66.46C83.8609 65.3587 83.6462 64.5653 83.2169 64.08C82.8062 63.576 82.1435 63.324 81.2289 63.324C80.1649 63.324 79.3062 63.66 78.6529 64.332C78.0182 64.9853 77.7009 65.8627 77.7009 66.964V75H74.2009ZM105.252 75.28C103.796 75.28 102.517 74.9813 101.416 74.384C100.333 73.7867 99.4929 72.9373 98.8956 71.836C98.2982 70.716 97.9996 69.3907 97.9996 67.86C97.9996 66.3293 98.2982 65.0227 98.8956 63.94C99.5116 62.8573 100.361 62.0267 101.444 61.448C102.526 60.8693 103.796 60.58 105.252 60.58C106.185 60.58 107.09 60.7293 107.968 61.028C108.864 61.308 109.592 61.7187 110.152 62.26L109.088 64.696C108.584 64.2293 108.014 63.884 107.38 63.66C106.764 63.4173 106.157 63.296 105.56 63.296C104.309 63.296 103.329 63.688 102.62 64.472C101.929 65.256 101.584 66.3947 101.584 67.888C101.584 69.3813 101.929 70.5293 102.62 71.332C103.329 72.1347 104.309 72.536 105.56 72.536C106.138 72.536 106.736 72.424 107.352 72.2C107.986 71.976 108.565 71.6307 109.088 71.164L110.152 73.572C109.573 74.1133 108.836 74.5333 107.94 74.832C107.062 75.1307 106.166 75.28 105.252 75.28ZM112.865 75V54.392H116.365V75H112.865ZM120.166 75V60.86H123.666V75H120.166ZM119.97 58.2V54.784H123.862V58.2H119.97ZM127.467 75V64.388C127.467 63.8093 127.448 63.2213 127.41 62.624C127.373 62.0267 127.317 61.4387 127.243 60.86H130.631L130.911 63.66H130.575C131.023 62.6707 131.685 61.9147 132.562 61.392C133.44 60.8507 134.457 60.58 135.615 60.58C137.276 60.58 138.527 61.0467 139.367 61.98C140.207 62.9133 140.627 64.3693 140.627 66.348V75H137.127V66.516C137.127 65.3773 136.903 64.5653 136.455 64.08C136.025 63.576 135.372 63.324 134.495 63.324C133.412 63.324 132.553 63.66 131.919 64.332C131.284 65.004 130.967 65.9 130.967 67.02V75H127.467ZM144.338 75V60.86H147.838V75H144.338ZM144.142 58.2V54.784H148.034V58.2H144.142ZM158.134 75.28C156.678 75.28 155.4 74.9813 154.298 74.384C153.216 73.7867 152.376 72.9373 151.778 71.836C151.181 70.716 150.882 69.3907 150.882 67.86C150.882 66.3293 151.181 65.0227 151.778 63.94C152.394 62.8573 153.244 62.0267 154.326 61.448C155.409 60.8693 156.678 60.58 158.134 60.58C159.068 60.58 159.973 60.7293 160.85 61.028C161.746 61.308 162.474 61.7187 163.034 62.26L161.97 64.696C161.466 64.2293 160.897 63.884 160.262 63.66C159.646 63.4173 159.04 63.296 158.442 63.296C157.192 63.296 156.212 63.688 155.502 64.472C154.812 65.256 154.466 66.3947 154.466 67.888C154.466 69.3813 154.812 70.5293 155.502 71.332C156.212 72.1347 157.192 72.536 158.442 72.536C159.021 72.536 159.618 72.424 160.234 72.2C160.869 71.976 161.448 71.6307 161.97 71.164L163.034 73.572C162.456 74.1133 161.718 74.5333 160.822 74.832C159.945 75.1307 159.049 75.28 158.134 75.28Z" fill="black"/>
<line x1="4.37114e-08" y1="89.5" x2="233" y2="89.5" stroke="black"/>
<path d="M1.408 113V101.72H6C7.184 101.72 8.096 102.008 8.736 102.584C9.376 103.149 9.696 103.939 9.696 104.952C9.696 105.944 9.376 106.733 8.736 107.32C8.096 107.896 7.184 108.184 6 108.184H2.736V113H1.408ZM2.736 107.08H5.872C6.69333 107.08 7.312 106.893 7.728 106.52C8.15467 106.147 8.368 105.624 8.368 104.952C8.368 104.269 8.15467 103.741 7.728 103.368C7.312 102.995 6.69333 102.808 5.872 102.808H2.736V107.08ZM11.4976 113V106.904C11.4976 106.584 11.487 106.259 11.4656 105.928C11.455 105.597 11.4336 105.277 11.4016 104.968H12.6496L12.8096 106.92L12.5856 106.936C12.6923 106.456 12.879 106.061 13.1456 105.752C13.4123 105.443 13.727 105.213 14.0896 105.064C14.4523 104.904 14.831 104.824 15.2256 104.824C15.3856 104.824 15.5243 104.829 15.6416 104.84C15.7696 104.851 15.887 104.877 15.9936 104.92L15.9776 106.072C15.8176 106.019 15.6683 105.987 15.5296 105.976C15.4016 105.955 15.2523 105.944 15.0816 105.944C14.6123 105.944 14.2016 106.056 13.8496 106.28C13.5083 106.504 13.247 106.792 13.0656 107.144C12.895 107.496 12.8096 107.869 12.8096 108.264V113H11.4976ZM20.5444 113.144C19.7764 113.144 19.1044 112.979 18.5284 112.648C17.963 112.307 17.5257 111.827 17.2164 111.208C16.907 110.579 16.7524 109.837 16.7524 108.984C16.7524 108.12 16.907 107.379 17.2164 106.76C17.5257 106.141 17.963 105.667 18.5284 105.336C19.1044 104.995 19.7764 104.824 20.5444 104.824C21.323 104.824 21.995 104.995 22.5604 105.336C23.1364 105.667 23.579 106.141 23.8884 106.76C24.2084 107.379 24.3684 108.12 24.3684 108.984C24.3684 109.837 24.2084 110.579 23.8884 111.208C23.579 111.827 23.1364 112.307 22.5604 112.648C21.995 112.979 21.323 113.144 20.5444 113.144ZM20.5444 112.088C21.3124 112.088 21.9204 111.827 22.3684 111.304C22.8164 110.771 23.0404 109.997 23.0404 108.984C23.0404 107.96 22.811 107.187 22.3524 106.664C21.9044 106.131 21.3017 105.864 20.5444 105.864C19.787 105.864 19.1844 106.131 18.7364 106.664C18.2884 107.187 18.0644 107.96 18.0644 108.984C18.0644 109.997 18.2884 110.771 18.7364 111.304C19.1844 111.827 19.787 112.088 20.5444 112.088ZM26.7269 113V105.976H25.1589V104.968H27.0789L26.7269 105.304V103.96C26.7269 103.053 26.9562 102.36 27.4149 101.88C27.8735 101.4 28.5295 101.16 29.3829 101.16C29.5962 101.16 29.8149 101.181 30.0389 101.224C30.2735 101.256 30.4655 101.304 30.6149 101.368V102.44C30.4869 102.387 30.3269 102.344 30.1349 102.312C29.9535 102.269 29.7669 102.248 29.5749 102.248C29.2442 102.248 28.9615 102.317 28.7269 102.456C28.4922 102.584 28.3162 102.781 28.1989 103.048C28.0815 103.315 28.0229 103.656 28.0229 104.072V105.24L27.8149 104.968H30.2629V105.976H28.0229V113H26.7269ZM35.0664 113.144C33.8077 113.144 32.8157 112.781 32.0904 112.056C31.365 111.32 31.0024 110.301 31.0024 109C31.0024 108.157 31.1624 107.427 31.4824 106.808C31.8024 106.179 32.2504 105.693 32.8264 105.352C33.4024 105 34.0637 104.824 34.8104 104.824C35.5464 104.824 36.165 104.979 36.6664 105.288C37.1677 105.597 37.5517 106.04 37.8184 106.616C38.085 107.181 38.2184 107.853 38.2184 108.632V109.112H31.9944V108.296H37.3704L37.0984 108.504C37.0984 107.651 36.9064 106.984 36.5224 106.504C36.1384 106.024 35.5677 105.784 34.8104 105.784C34.0104 105.784 33.3864 106.067 32.9384 106.632C32.4904 107.187 32.2664 107.939 32.2664 108.888V109.032C32.2664 110.035 32.5117 110.797 33.0024 111.32C33.5037 111.832 34.2024 112.088 35.0984 112.088C35.5784 112.088 36.0264 112.019 36.4424 111.88C36.869 111.731 37.2744 111.491 37.6584 111.16L38.1064 112.072C37.7544 112.413 37.3064 112.68 36.7624 112.872C36.229 113.053 35.6637 113.144 35.0664 113.144ZM42.8735 113.144C42.2335 113.144 41.6362 113.059 41.0815 112.888C40.5268 112.707 40.0682 112.456 39.7055 112.136L40.1535 111.224C40.5482 111.533 40.9748 111.763 41.4335 111.912C41.9028 112.061 42.3882 112.136 42.8895 112.136C43.5295 112.136 44.0095 112.024 44.3295 111.8C44.6602 111.565 44.8255 111.245 44.8255 110.84C44.8255 110.531 44.7188 110.285 44.5055 110.104C44.3028 109.912 43.9668 109.763 43.4975 109.656L42.0095 109.352C41.3268 109.203 40.8148 108.952 40.4735 108.6C40.1322 108.237 39.9615 107.779 39.9615 107.224C39.9615 106.755 40.0842 106.344 40.3295 105.992C40.5748 105.629 40.9322 105.347 41.4015 105.144C41.8708 104.931 42.4202 104.824 43.0495 104.824C43.6362 104.824 44.1748 104.915 44.6655 105.096C45.1668 105.267 45.5828 105.517 45.9135 105.848L45.4495 106.744C45.1295 106.435 44.7615 106.205 44.3455 106.056C43.9402 105.896 43.5188 105.816 43.0815 105.816C42.4522 105.816 41.9775 105.944 41.6575 106.2C41.3482 106.445 41.1935 106.771 41.1935 107.176C41.1935 107.485 41.2895 107.741 41.4815 107.944C41.6842 108.136 41.9935 108.28 42.4095 108.376L43.8975 108.68C44.6228 108.84 45.1615 109.091 45.5135 109.432C45.8762 109.763 46.0575 110.211 46.0575 110.776C46.0575 111.256 45.9242 111.677 45.6575 112.04C45.3908 112.392 45.0175 112.664 44.5375 112.856C44.0682 113.048 43.5135 113.144 42.8735 113.144ZM50.811 113.144C50.171 113.144 49.5737 113.059 49.019 112.888C48.4643 112.707 48.0057 112.456 47.643 112.136L48.091 111.224C48.4857 111.533 48.9123 111.763 49.371 111.912C49.8403 112.061 50.3257 112.136 50.827 112.136C51.467 112.136 51.947 112.024 52.267 111.8C52.5977 111.565 52.763 111.245 52.763 110.84C52.763 110.531 52.6563 110.285 52.443 110.104C52.2403 109.912 51.9043 109.763 51.435 109.656L49.947 109.352C49.2643 109.203 48.7523 108.952 48.411 108.6C48.0697 108.237 47.899 107.779 47.899 107.224C47.899 106.755 48.0217 106.344 48.267 105.992C48.5123 105.629 48.8697 105.347 49.339 105.144C49.8083 104.931 50.3577 104.824 50.987 104.824C51.5737 104.824 52.1123 104.915 52.603 105.096C53.1043 105.267 53.5203 105.517 53.851 105.848L53.387 106.744C53.067 106.435 52.699 106.205 52.283 106.056C51.8777 105.896 51.4563 105.816 51.019 105.816C50.3897 105.816 49.915 105.944 49.595 106.2C49.2857 106.445 49.131 106.771 49.131 107.176C49.131 107.485 49.227 107.741 49.419 107.944C49.6217 108.136 49.931 108.28 50.347 108.376L51.835 108.68C52.5603 108.84 53.099 109.091 53.451 109.432C53.8137 109.763 53.995 110.211 53.995 110.776C53.995 111.256 53.8617 111.677 53.595 112.04C53.3283 112.392 52.955 112.664 52.475 112.856C52.0057 113.048 51.451 113.144 50.811 113.144ZM56.0765 113V104.968H57.3725V113H56.0765ZM55.9165 103.144V101.688H57.5165V103.144H55.9165ZM63.185 113.144C62.417 113.144 61.745 112.979 61.169 112.648C60.6037 112.307 60.1663 111.827 59.857 111.208C59.5477 110.579 59.393 109.837 59.393 108.984C59.393 108.12 59.5477 107.379 59.857 106.76C60.1663 106.141 60.6037 105.667 61.169 105.336C61.745 104.995 62.417 104.824 63.185 104.824C63.9637 104.824 64.6357 104.995 65.201 105.336C65.777 105.667 66.2197 106.141 66.529 106.76C66.849 107.379 67.009 108.12 67.009 108.984C67.009 109.837 66.849 110.579 66.529 111.208C66.2197 111.827 65.777 112.307 65.201 112.648C64.6357 112.979 63.9637 113.144 63.185 113.144ZM63.185 112.088C63.953 112.088 64.561 111.827 65.009 111.304C65.457 110.771 65.681 109.997 65.681 108.984C65.681 107.96 65.4517 107.187 64.993 106.664C64.545 106.131 63.9423 105.864 63.185 105.864C62.4277 105.864 61.825 106.131 61.377 106.664C60.929 107.187 60.705 107.96 60.705 108.984C60.705 109.997 60.929 110.771 61.377 111.304C61.825 111.827 62.4277 112.088 63.185 112.088ZM69.0296 113V106.824C69.0296 106.525 69.0136 106.221 68.9816 105.912C68.9603 105.592 68.9336 105.277 68.9016 104.968H70.1496L70.3096 106.728H70.1176C70.3523 106.109 70.7256 105.64 71.2376 105.32C71.7603 104.989 72.363 104.824 73.0456 104.824C73.995 104.824 74.7096 105.08 75.1896 105.592C75.6803 106.093 75.9256 106.888 75.9256 107.976V113H74.6296V108.056C74.6296 107.299 74.475 106.749 74.1656 106.408C73.867 106.056 73.3976 105.88 72.7576 105.88C72.011 105.88 71.419 106.109 70.9816 106.568C70.5443 107.027 70.3256 107.64 70.3256 108.408V113H69.0296ZM81.4606 113.144C80.746 113.144 80.122 112.979 79.5886 112.648C79.0553 112.307 78.6393 111.827 78.3406 111.208C78.0526 110.589 77.9086 109.848 77.9086 108.984C77.9086 108.109 78.0526 107.363 78.3406 106.744C78.6393 106.125 79.0553 105.651 79.5886 105.32C80.122 104.989 80.746 104.824 81.4606 104.824C82.186 104.824 82.81 105.011 83.3326 105.384C83.866 105.747 84.218 106.243 84.3886 106.872H84.1966L84.3726 104.968H85.6206C85.5886 105.277 85.5566 105.592 85.5246 105.912C85.5033 106.221 85.4926 106.525 85.4926 106.824V113H84.1966V111.112H84.3726C84.202 111.741 83.85 112.237 83.3166 112.6C82.7833 112.963 82.1646 113.144 81.4606 113.144ZM81.7166 112.088C82.4846 112.088 83.0926 111.827 83.5406 111.304C83.9886 110.771 84.2126 109.997 84.2126 108.984C84.2126 107.96 83.9886 107.187 83.5406 106.664C83.0926 106.131 82.4846 105.864 81.7166 105.864C80.9593 105.864 80.3513 106.131 79.8926 106.664C79.4446 107.187 79.2206 107.96 79.2206 108.984C79.2206 109.997 79.4446 110.771 79.8926 111.304C80.3513 111.827 80.9593 112.088 81.7166 112.088ZM87.9984 113V101.224H89.2944V113H87.9984ZM95.0068 113L99.9828 101.72H101.135L106.191 113H104.815L103.407 109.784L103.999 110.12H97.1028L97.7428 109.784L96.3668 113H95.0068ZM100.543 103.24L97.9508 109.32L97.5668 109.032H103.519L103.231 109.32L100.575 103.24H100.543ZM107.748 116.456V106.824C107.748 106.525 107.732 106.221 107.7 105.912C107.679 105.592 107.652 105.277 107.62 104.968H108.868L109.044 106.872H108.852C109.023 106.243 109.37 105.747 109.892 105.384C110.415 105.011 111.039 104.824 111.764 104.824C112.49 104.824 113.114 104.989 113.636 105.32C114.17 105.651 114.586 106.125 114.884 106.744C115.183 107.363 115.332 108.109 115.332 108.984C115.332 109.848 115.183 110.589 114.884 111.208C114.596 111.827 114.186 112.307 113.652 112.648C113.119 112.979 112.49 113.144 111.764 113.144C111.05 113.144 110.431 112.963 109.908 112.6C109.386 112.237 109.039 111.741 108.868 111.112H109.044V116.456H107.748ZM111.508 112.088C112.276 112.088 112.884 111.827 113.332 111.304C113.791 110.771 114.02 109.997 114.02 108.984C114.02 107.96 113.791 107.187 113.332 106.664C112.884 106.131 112.276 105.864 111.508 105.864C110.751 105.864 110.143 106.131 109.684 106.664C109.236 107.187 109.012 107.96 109.012 108.984C109.012 109.997 109.236 110.771 109.684 111.304C110.143 111.827 110.751 112.088 111.508 112.088ZM117.342 116.456V106.824C117.342 106.525 117.326 106.221 117.294 105.912C117.273 105.592 117.246 105.277 117.214 104.968H118.462L118.638 106.872H118.446C118.617 106.243 118.963 105.747 119.486 105.384C120.009 105.011 120.633 104.824 121.358 104.824C122.083 104.824 122.707 104.989 123.23 105.32C123.763 105.651 124.179 106.125 124.478 106.744C124.777 107.363 124.926 108.109 124.926 108.984C124.926 109.848 124.777 110.589 124.478 111.208C124.19 111.827 123.779 112.307 123.246 112.648C122.713 112.979 122.083 113.144 121.358 113.144C120.643 113.144 120.025 112.963 119.502 112.6C118.979 112.237 118.633 111.741 118.462 111.112H118.638V116.456H117.342ZM121.102 112.088C121.87 112.088 122.478 111.827 122.926 111.304C123.385 110.771 123.614 109.997 123.614 108.984C123.614 107.96 123.385 107.187 122.926 106.664C122.478 106.131 121.87 105.864 121.102 105.864C120.345 105.864 119.737 106.131 119.278 106.664C118.83 107.187 118.606 107.96 118.606 108.984C118.606 109.997 118.83 110.771 119.278 111.304C119.737 111.827 120.345 112.088 121.102 112.088ZM131.524 113V105.976H129.956V104.968H131.876L131.524 105.304V103.96C131.524 103.053 131.753 102.36 132.212 101.88C132.67 101.4 133.326 101.16 134.18 101.16C134.393 101.16 134.612 101.181 134.836 101.224C135.07 101.256 135.262 101.304 135.412 101.368V102.44C135.284 102.387 135.124 102.344 134.932 102.312C134.75 102.269 134.564 102.248 134.372 102.248C134.041 102.248 133.758 102.317 133.524 102.456C133.289 102.584 133.113 102.781 132.996 103.048C132.878 103.315 132.82 103.656 132.82 104.072V105.24L132.612 104.968H135.06V105.976H132.82V113H131.524ZM139.591 113.144C138.823 113.144 138.151 112.979 137.575 112.648C137.01 112.307 136.573 111.827 136.263 111.208C135.954 110.579 135.799 109.837 135.799 108.984C135.799 108.12 135.954 107.379 136.263 106.76C136.573 106.141 137.01 105.667 137.575 105.336C138.151 104.995 138.823 104.824 139.591 104.824C140.37 104.824 141.042 104.995 141.607 105.336C142.183 105.667 142.626 106.141 142.935 106.76C143.255 107.379 143.415 108.12 143.415 108.984C143.415 109.837 143.255 110.579 142.935 111.208C142.626 111.827 142.183 112.307 141.607 112.648C141.042 112.979 140.37 113.144 139.591 113.144ZM139.591 112.088C140.359 112.088 140.967 111.827 141.415 111.304C141.863 110.771 142.087 109.997 142.087 108.984C142.087 107.96 141.858 107.187 141.399 106.664C140.951 106.131 140.349 105.864 139.591 105.864C138.834 105.864 138.231 106.131 137.783 106.664C137.335 107.187 137.111 107.96 137.111 108.984C137.111 109.997 137.335 110.771 137.783 111.304C138.231 111.827 138.834 112.088 139.591 112.088ZM145.404 113V106.904C145.404 106.584 145.393 106.259 145.372 105.928C145.361 105.597 145.34 105.277 145.308 104.968H146.556L146.716 106.92L146.492 106.936C146.599 106.456 146.785 106.061 147.052 105.752C147.319 105.443 147.633 105.213 147.996 105.064C148.359 104.904 148.737 104.824 149.132 104.824C149.292 104.824 149.431 104.829 149.548 104.84C149.676 104.851 149.793 104.877 149.9 104.92L149.884 106.072C149.724 106.019 149.575 105.987 149.436 105.976C149.308 105.955 149.159 105.944 148.988 105.944C148.519 105.944 148.108 106.056 147.756 106.28C147.415 106.504 147.153 106.792 146.972 107.144C146.801 107.496 146.716 107.869 146.716 108.264V113H145.404ZM155.1 116.632L154.796 115.56C155.298 115.443 155.714 115.304 156.044 115.144C156.386 114.995 156.668 114.792 156.892 114.536C157.116 114.28 157.308 113.96 157.468 113.576L157.884 112.632L157.852 113.176L154.348 104.968H155.756L158.652 112.024H158.236L161.1 104.968H162.46L158.748 113.672C158.535 114.184 158.3 114.611 158.044 114.952C157.788 115.304 157.511 115.587 157.212 115.8C156.924 116.024 156.604 116.2 156.252 116.328C155.9 116.456 155.516 116.557 155.1 116.632ZM167.107 113.144C166.339 113.144 165.667 112.979 165.091 112.648C164.526 112.307 164.088 111.827 163.779 111.208C163.47 110.579 163.315 109.837 163.315 108.984C163.315 108.12 163.47 107.379 163.779 106.76C164.088 106.141 164.526 105.667 165.091 105.336C165.667 104.995 166.339 104.824 167.107 104.824C167.886 104.824 168.558 104.995 169.123 105.336C169.699 105.667 170.142 106.141 170.451 106.76C170.771 107.379 170.931 108.12 170.931 108.984C170.931 109.837 170.771 110.579 170.451 111.208C170.142 111.827 169.699 112.307 169.123 112.648C168.558 112.979 167.886 113.144 167.107 113.144ZM167.107 112.088C167.875 112.088 168.483 111.827 168.931 111.304C169.379 110.771 169.603 109.997 169.603 108.984C169.603 107.96 169.374 107.187 168.915 106.664C168.467 106.131 167.864 105.864 167.107 105.864C166.35 105.864 165.747 106.131 165.299 106.664C164.851 107.187 164.627 107.96 164.627 108.984C164.627 109.997 164.851 110.771 165.299 111.304C165.747 111.827 166.35 112.088 167.107 112.088ZM175.784 113.144C174.834 113.144 174.114 112.883 173.624 112.36C173.144 111.837 172.904 111.037 172.904 109.96V104.968H174.2V109.928C174.2 110.664 174.349 111.208 174.648 111.56C174.946 111.901 175.41 112.072 176.04 112.072C176.744 112.072 177.309 111.843 177.736 111.384C178.162 110.925 178.376 110.312 178.376 109.544V104.968H179.672V113H178.408V111.192H178.616C178.392 111.811 178.029 112.291 177.528 112.632C177.037 112.973 176.456 113.144 175.784 113.144ZM182.154 113V106.904C182.154 106.584 182.143 106.259 182.122 105.928C182.111 105.597 182.09 105.277 182.058 104.968H183.306L183.466 106.92L183.242 106.936C183.349 106.456 183.535 106.061 183.802 105.752C184.069 105.443 184.383 105.213 184.746 105.064C185.109 104.904 185.487 104.824 185.882 104.824C186.042 104.824 186.181 104.829 186.298 104.84C186.426 104.851 186.543 104.877 186.65 104.92L186.634 106.072C186.474 106.019 186.325 105.987 186.186 105.976C186.058 105.955 185.909 105.944 185.738 105.944C185.269 105.944 184.858 106.056 184.506 106.28C184.165 106.504 183.903 106.792 183.722 107.144C183.551 107.496 183.466 107.869 183.466 108.264V113H182.154ZM1.408 133V121.72H2.736V126.712H9.536V121.72H10.848V133H9.536V127.848H2.736V133H1.408ZM17.082 133.144C15.8233 133.144 14.8313 132.781 14.106 132.056C13.3807 131.32 13.018 130.301 13.018 129C13.018 128.157 13.178 127.427 13.498 126.808C13.818 126.179 14.266 125.693 14.842 125.352C15.418 125 16.0793 124.824 16.826 124.824C17.562 124.824 18.1807 124.979 18.682 125.288C19.1833 125.597 19.5673 126.04 19.834 126.616C20.1007 127.181 20.234 127.853 20.234 128.632V129.112H14.01V128.296H19.386L19.114 128.504C19.114 127.651 18.922 126.984 18.538 126.504C18.154 126.024 17.5833 125.784 16.826 125.784C16.026 125.784 15.402 126.067 14.954 126.632C14.506 127.187 14.282 127.939 14.282 128.888V129.032C14.282 130.035 14.5273 130.797 15.018 131.32C15.5193 131.832 16.218 132.088 17.114 132.088C17.594 132.088 18.042 132.019 18.458 131.88C18.8847 131.731 19.29 131.491 19.674 131.16L20.122 132.072C19.77 132.413 19.322 132.68 18.778 132.872C18.2447 133.053 17.6793 133.144 17.082 133.144ZM25.2731 133.144C24.5585 133.144 23.9345 132.979 23.4011 132.648C22.8678 132.307 22.4518 131.827 22.1531 131.208C21.8651 130.589 21.7211 129.848 21.7211 128.984C21.7211 128.109 21.8651 127.363 22.1531 126.744C22.4518 126.125 22.8678 125.651 23.4011 125.32C23.9345 124.989 24.5585 124.824 25.2731 124.824C25.9985 124.824 26.6225 125.011 27.1451 125.384C27.6785 125.747 28.0305 126.243 28.2011 126.872H28.0091L28.1851 124.968H29.4331C29.4011 125.277 29.3691 125.592 29.3371 125.912C29.3158 126.221 29.3051 126.525 29.3051 126.824V133H28.0091V131.112H28.1851C28.0145 131.741 27.6625 132.237 27.1291 132.6C26.5958 132.963 25.9771 133.144 25.2731 133.144ZM25.5291 132.088C26.2971 132.088 26.9051 131.827 27.3531 131.304C27.8011 130.771 28.0251 129.997 28.0251 128.984C28.0251 127.96 27.8011 127.187 27.3531 126.664C26.9051 126.131 26.2971 125.864 25.5291 125.864C24.7718 125.864 24.1638 126.131 23.7051 126.664C23.2571 127.187 23.0331 127.96 23.0331 128.984C23.0331 129.997 23.2571 130.771 23.7051 131.304C24.1638 131.827 24.7718 132.088 25.5291 132.088ZM31.8109 133V121.224H33.1069V133H31.8109ZM38.4714 133.144C37.682 133.144 37.0794 132.92 36.6634 132.472C36.2474 132.013 36.0394 131.325 36.0394 130.408V125.976H34.4714V124.968H36.0394V122.776L37.3354 122.408V124.968H39.6394V125.976H37.3354V130.264C37.3354 130.904 37.442 131.363 37.6554 131.64C37.8794 131.907 38.21 132.04 38.6474 132.04C38.85 132.04 39.0314 132.024 39.1914 131.992C39.3514 131.949 39.4954 131.901 39.6234 131.848V132.936C39.474 133 39.2927 133.048 39.0794 133.08C38.8767 133.123 38.674 133.144 38.4714 133.144ZM41.2171 133V121.224H42.5131V126.744H42.3051C42.5291 126.115 42.9025 125.64 43.4251 125.32C43.9585 124.989 44.5718 124.824 45.2651 124.824C46.2251 124.824 46.9398 125.085 47.4091 125.608C47.8785 126.12 48.1131 126.899 48.1131 127.944V133H46.8171V128.024C46.8171 127.277 46.6678 126.733 46.3691 126.392C46.0811 126.051 45.6118 125.88 44.9611 125.88C44.2145 125.88 43.6171 126.109 43.1691 126.568C42.7318 127.027 42.5131 127.629 42.5131 128.376V133H41.2171ZM58.14 133.144C57.3507 133.144 56.6627 132.973 56.076 132.632C55.5 132.291 55.052 131.805 54.732 131.176C54.4227 130.547 54.268 129.8 54.268 128.936C54.268 128.061 54.428 127.32 54.748 126.712C55.068 126.093 55.516 125.624 56.092 125.304C56.6787 124.984 57.3613 124.824 58.14 124.824C58.652 124.824 59.148 124.915 59.628 125.096C60.1187 125.277 60.524 125.533 60.844 125.864L60.38 126.792C60.06 126.483 59.708 126.253 59.324 126.104C58.9507 125.955 58.5827 125.88 58.22 125.88C57.388 125.88 56.7427 126.141 56.284 126.664C55.8253 127.187 55.596 127.949 55.596 128.952C55.596 129.944 55.8253 130.712 56.284 131.256C56.7427 131.8 57.388 132.072 58.22 132.072C58.572 132.072 58.9347 132.003 59.308 131.864C59.692 131.725 60.0493 131.496 60.38 131.176L60.844 132.088C60.5133 132.429 60.1027 132.691 59.612 132.872C59.1213 133.053 58.6307 133.144 58.14 133.144ZM62.6859 133V121.224H63.9819V133H62.6859ZM66.4984 133V124.968H67.7944V133H66.4984ZM66.3384 123.144V121.688H67.9384V123.144H66.3384ZM70.3109 133V126.824C70.3109 126.525 70.2949 126.221 70.2629 125.912C70.2415 125.592 70.2149 125.277 70.1829 124.968H71.4309L71.5909 126.728H71.3989C71.6335 126.109 72.0069 125.64 72.5189 125.32C73.0415 124.989 73.6442 124.824 74.3269 124.824C75.2762 124.824 75.9909 125.08 76.4709 125.592C76.9615 126.093 77.2069 126.888 77.2069 127.976V133H75.9109V128.056C75.9109 127.299 75.7562 126.749 75.4469 126.408C75.1482 126.056 74.6789 125.88 74.0389 125.88C73.2922 125.88 72.7002 126.109 72.2629 126.568C71.8255 127.027 71.6069 127.64 71.6069 128.408V133H70.3109ZM79.6859 133V124.968H80.9819V133H79.6859ZM79.5259 123.144V121.688H81.1259V123.144H79.5259ZM86.8744 133.144C86.085 133.144 85.397 132.973 84.8104 132.632C84.2344 132.291 83.7864 131.805 83.4664 131.176C83.157 130.547 83.0024 129.8 83.0024 128.936C83.0024 128.061 83.1624 127.32 83.4824 126.712C83.8024 126.093 84.2504 125.624 84.8264 125.304C85.413 124.984 86.0957 124.824 86.8744 124.824C87.3864 124.824 87.8824 124.915 88.3624 125.096C88.853 125.277 89.2584 125.533 89.5784 125.864L89.1144 126.792C88.7944 126.483 88.4424 126.253 88.0584 126.104C87.685 125.955 87.317 125.88 86.9544 125.88C86.1224 125.88 85.477 126.141 85.0184 126.664C84.5597 127.187 84.3304 127.949 84.3304 128.952C84.3304 129.944 84.5597 130.712 85.0184 131.256C85.477 131.8 86.1224 132.072 86.9544 132.072C87.3064 132.072 87.669 132.003 88.0424 131.864C88.4264 131.725 88.7837 131.496 89.1144 131.176L89.5784 132.088C89.2477 132.429 88.837 132.691 88.3464 132.872C87.8557 133.053 87.365 133.144 86.8744 133.144Z" fill="#404040"/>
</svg>
